<svg xmlns="http://www.w3.org/2000/svg" viewBox="0 0 500 500" width="500" height="500"><rect width="500" height="500" fill="#1a0a3e" rx="20"/><text x="130.3" y="217.1" fill="#AA44FF" opacity="0.08" font-size="16" text-anchor="middle" dominant-baseline="central">✦</text><text x="195.0" y="280.8" fill="#AA44FF" opacity="0.08" font-size="16" text-anchor="middle" dominant-baseline="central">✦</text><text x="296.6" y="122.4" fill="#AA44FF" opacity="0.08" font-size="16" text-anchor="middle" dominant-baseline="central">✦</text><text x="307.7" y="241.9" fill="#AA44FF" opacity="0.08" font-size="16" text-anchor="middle" dominant-baseline="central">✦</text><text x="330.7" y="374.6" fill="#AA44FF" opacity="0.08" font-size="16" text-anchor="middle" dominant-baseline="central">✦</text><text x="295.3" y="179.7" fill="#AA44FF" opacity="0.08" font-size="16" text-anchor="middle" dominant-baseline="central">✦</text><circle cx="250" cy="250" r="180" fill="#AA44FF" opacity="0.04"/><circle cx="250" cy="250" r="140" fill="#AA44FF" opacity="0.03"/><circle cx="250" cy="250" r="190" fill="none" stroke="#7722CC" stroke-width="4" opacity="0.4"/><circle cx="250" cy="250" r="180" fill="none" stroke="#7722CC" stroke-width="2.5"/><line x1="429.9" y1="243.0" x2="444.9" y2="242.4" stroke="#AA44FF" stroke-width="4" stroke-linecap="round"/><line x1="411.7" y1="329.1" x2="425.1" y2="335.7" stroke="#AA44FF" stroke-width="4" stroke-linecap="round"/><line x1="359.5" y1="392.9" x2="368.6" y2="404.8" stroke="#AA44FF" stroke-width="4" stroke-linecap="round"/><line x1="295.1" y1="424.3" x2="298.8" y2="438.8" stroke="#AA44FF" stroke-width="4" stroke-linecap="round"/><line x1="217.0" y1="427.0" x2="214.3" y2="441.7" stroke="#AA44FF" stroke-width="4" stroke-linecap="round"/><line x1="132.0" y1="386.0" x2="122.2" y2="397.3" stroke="#AA44FF" stroke-width="4" stroke-linecap="round"/><line x1="90.2" y1="332.8" x2="76.9" y2="339.7" stroke="#AA44FF" stroke-width="4" stroke-linecap="round"/><line x1="70.0" y1="247.5" x2="55.0" y2="247.3" stroke="#AA44FF" stroke-width="4" stroke-linecap="round"/><line x1="86.5" y1="174.6" x2="72.9" y2="168.4" stroke="#AA44FF" stroke-width="4" stroke-linecap="round"/><line x1="134.3" y1="112.1" x2="124.6" y2="100.7" stroke="#AA44FF" stroke-width="4" stroke-linecap="round"/><line x1="214.4" y1="73.6" x2="211.4" y2="58.9" stroke="#AA44FF" stroke-width="4" stroke-linecap="round"/><line x1="285.9" y1="73.6" x2="288.9" y2="58.9" stroke="#AA44FF" stroke-width="4" stroke-linecap="round"/><line x1="365.6" y1="112.0" x2="375.3" y2="100.5" stroke="#AA44FF" stroke-width="4" stroke-linecap="round"/><line x1="415.1" y1="178.4" x2="428.9" y2="172.4" stroke="#AA44FF" stroke-width="4" stroke-linecap="round"/><circle cx="250" cy="250" r="160" fill="#1a0a3e" stroke="#7722CC" stroke-width="2"/><circle cx="250" cy="250" r="120" fill="none" stroke="#5511AA" stroke-width="1" opacity="0.5"/><circle cx="250" cy="250" r="80" fill="none" stroke="#5511AA" stroke-width="1" opacity="0.3"/><line x1="177.3" y1="216.7" x2="140.9" y2="200.0" stroke="#AA44FF" stroke-width="1.5" opacity="0.3"/><line x1="283.3" y1="177.3" x2="300.0" y2="140.9" stroke="#AA44FF" stroke-width="1.5" opacity="0.3"/><line x1="322.7" y1="283.3" x2="359.1" y2="300.0" stroke="#AA44FF" stroke-width="1.5" opacity="0.3"/><line x1="216.7" y1="322.7" x2="200.0" y2="359.1" stroke="#AA44FF" stroke-width="1.5" opacity="0.3"/><circle cx="250" cy="250" r="50" fill="#1a0a3e" stroke="#AA44FF" stroke-width="2"/><text x="250" y="242" text-anchor="middle" dominant-baseline="central" fill="#AA44FF" font-family="'Courier New', monospace" font-weight="bold" font-size="20">#305</text><text x="250" y="268" text-anchor="middle" dominant-baseline="central" fill="#7722CC" font-family="'Courier New', monospace" font-size="12" opacity="0.7">EPIC</text><text x="250" y="460" text-anchor="middle" fill="#AA44FF" font-family="'Courier New', monospace" font-size="14" opacity="0.4">CHIPTAP</text></svg>