<svg xmlns="http://www.w3.org/2000/svg" viewBox="0 0 500 500" width="500" height="500"><rect width="500" height="500" fill="#1a0a3e" rx="20"/><text x="128.2" y="261.7" fill="#AA44FF" opacity="0.08" font-size="16" text-anchor="middle" dominant-baseline="central">✦</text><text x="358.5" y="153.8" fill="#AA44FF" opacity="0.08" font-size="16" text-anchor="middle" dominant-baseline="central">✦</text><text x="188.3" y="195.8" fill="#AA44FF" opacity="0.08" font-size="16" text-anchor="middle" dominant-baseline="central">✦</text><text x="296.9" y="353.0" fill="#AA44FF" opacity="0.08" font-size="16" text-anchor="middle" dominant-baseline="central">✦</text><text x="365.3" y="199.7" fill="#AA44FF" opacity="0.08" font-size="16" text-anchor="middle" dominant-baseline="central">✦</text><text x="372.8" y="161.4" fill="#AA44FF" opacity="0.08" font-size="16" text-anchor="middle" dominant-baseline="central">✦</text><circle cx="250" cy="250" r="180" fill="#AA44FF" opacity="0.04"/><circle cx="250" cy="250" r="140" fill="#AA44FF" opacity="0.03"/><circle cx="250" cy="250" r="190" fill="none" stroke="#7722CC" stroke-width="4" opacity="0.4"/><circle cx="250" cy="250" r="180" fill="none" stroke="#7722CC" stroke-width="2.5"/><line x1="429.8" y1="257.6" x2="444.8" y2="258.2" stroke="#AA44FF" stroke-width="4" stroke-linecap="round"/><line x1="413.6" y1="325.1" x2="427.2" y2="331.4" stroke="#AA44FF" stroke-width="4" stroke-linecap="round"/><line x1="362.0" y1="390.9" x2="371.3" y2="402.7" stroke="#AA44FF" stroke-width="4" stroke-linecap="round"/><line x1="297.1" y1="423.7" x2="301.0" y2="438.2" stroke="#AA44FF" stroke-width="4" stroke-linecap="round"/><line x1="213.1" y1="426.2" x2="210.1" y2="440.9" stroke="#AA44FF" stroke-width="4" stroke-linecap="round"/><line x1="133.5" y1="387.2" x2="123.8" y2="398.6" stroke="#AA44FF" stroke-width="4" stroke-linecap="round"/><line x1="86.0" y1="324.1" x2="72.3" y2="330.3" stroke="#AA44FF" stroke-width="4" stroke-linecap="round"/><line x1="70.0" y1="247.8" x2="55.0" y2="247.6" stroke="#AA44FF" stroke-width="4" stroke-linecap="round"/><line x1="89.9" y1="167.8" x2="76.5" y2="160.9" stroke="#AA44FF" stroke-width="4" stroke-linecap="round"/><line x1="135.0" y1="111.5" x2="125.5" y2="99.9" stroke="#AA44FF" stroke-width="4" stroke-linecap="round"/><line x1="213.5" y1="73.7" x2="210.5" y2="59.0" stroke="#AA44FF" stroke-width="4" stroke-linecap="round"/><line x1="285.5" y1="73.5" x2="288.4" y2="58.8" stroke="#AA44FF" stroke-width="4" stroke-linecap="round"/><line x1="356.2" y1="104.6" x2="365.0" y2="92.5" stroke="#AA44FF" stroke-width="4" stroke-linecap="round"/><line x1="412.2" y1="172.0" x2="425.8" y2="165.5" stroke="#AA44FF" stroke-width="4" stroke-linecap="round"/><circle cx="250" cy="250" r="160" fill="#1a0a3e" stroke="#7722CC" stroke-width="2"/><circle cx="250" cy="250" r="120" fill="none" stroke="#5511AA" stroke-width="1" opacity="0.5"/><circle cx="250" cy="250" r="80" fill="none" stroke="#5511AA" stroke-width="1" opacity="0.3"/><line x1="174.0" y1="275.0" x2="136.0" y2="287.5" stroke="#AA44FF" stroke-width="1.5" opacity="0.3"/><line x1="225.0" y1="174.0" x2="212.5" y2="136.0" stroke="#AA44FF" stroke-width="1.5" opacity="0.3"/><line x1="326.0" y1="225.0" x2="364.0" y2="212.5" stroke="#AA44FF" stroke-width="1.5" opacity="0.3"/><line x1="275.0" y1="326.0" x2="287.5" y2="364.0" stroke="#AA44FF" stroke-width="1.5" opacity="0.3"/><circle cx="250" cy="250" r="50" fill="#1a0a3e" stroke="#AA44FF" stroke-width="2"/><text x="250" y="242" text-anchor="middle" dominant-baseline="central" fill="#AA44FF" font-family="'Courier New', monospace" font-weight="bold" font-size="20">#304</text><text x="250" y="268" text-anchor="middle" dominant-baseline="central" fill="#7722CC" font-family="'Courier New', monospace" font-size="12" opacity="0.7">EPIC</text><text x="250" y="460" text-anchor="middle" fill="#AA44FF" font-family="'Courier New', monospace" font-size="14" opacity="0.4">CHIPTAP</text></svg>