<svg xmlns="http://www.w3.org/2000/svg" viewBox="0 0 500 500" width="500" height="500"><rect width="500" height="500" fill="#1a1a2e" rx="20"/><circle cx="176.5" cy="119.1" r="4.6" fill="#aaaaaa" opacity="0.08"/><circle cx="230.4" cy="131.2" r="3.8" fill="#aaaaaa" opacity="0.08"/><circle cx="266.5" cy="354.6" r="2.5" fill="#aaaaaa" opacity="0.08"/><circle cx="347.8" cy="318.3" r="2.3" fill="#aaaaaa" opacity="0.08"/><circle cx="324.9" cy="179.1" r="3.7" fill="#aaaaaa" opacity="0.08"/><circle cx="212.6" cy="332.6" r="3.0" fill="#aaaaaa" opacity="0.08"/><circle cx="386.2" cy="275.2" r="3.8" fill="#aaaaaa" opacity="0.08"/><circle cx="254.2" cy="127.0" r="4.2" fill="#aaaaaa" opacity="0.08"/><circle cx="245.8" cy="104.2" r="4.6" fill="#aaaaaa" opacity="0.08"/><circle cx="297.0" cy="195.5" r="4.9" fill="#aaaaaa" opacity="0.08"/><circle cx="375.4" cy="285.4" r="4.8" fill="#aaaaaa" opacity="0.08"/><circle cx="204.3" cy="146.6" r="4.3" fill="#aaaaaa" opacity="0.08"/><circle cx="250" cy="250" r="190" fill="none" stroke="#888888" stroke-width="4" opacity="0.4"/><circle cx="250" cy="250" r="180" fill="none" stroke="#888888" stroke-width="2.5"/><line x1="430.0" y1="251.3" x2="445.0" y2="251.4" stroke="#aaaaaa" stroke-width="4" stroke-linecap="round"/><line x1="375.1" y1="379.4" x2="385.5" y2="390.2" stroke="#aaaaaa" stroke-width="4" stroke-linecap="round"/><line x1="244.6" y1="429.9" x2="244.2" y2="444.9" stroke="#aaaaaa" stroke-width="4" stroke-linecap="round"/><line x1="124.6" y1="379.1" x2="114.2" y2="389.9" stroke="#aaaaaa" stroke-width="4" stroke-linecap="round"/><line x1="70.1" y1="256.0" x2="55.1" y2="256.5" stroke="#aaaaaa" stroke-width="4" stroke-linecap="round"/><line x1="119.8" y1="125.7" x2="108.9" y2="115.4" stroke="#aaaaaa" stroke-width="4" stroke-linecap="round"/><line x1="246.2" y1="70.0" x2="245.8" y2="55.0" stroke="#aaaaaa" stroke-width="4" stroke-linecap="round"/><line x1="379.7" y1="125.1" x2="390.5" y2="114.7" stroke="#aaaaaa" stroke-width="4" stroke-linecap="round"/><circle cx="250" cy="250" r="160" fill="#1a1a2e" stroke="#888888" stroke-width="2"/><circle cx="250" cy="250" r="120" fill="none" stroke="#666666" stroke-width="1" opacity="0.5"/><circle cx="250" cy="250" r="80" fill="none" stroke="#666666" stroke-width="1" opacity="0.3"/><line x1="319.2" y1="290.1" x2="353.9" y2="310.1" stroke="#aaaaaa" stroke-width="1.5" opacity="0.3"/><line x1="209.9" y1="319.2" x2="189.9" y2="353.9" stroke="#aaaaaa" stroke-width="1.5" opacity="0.3"/><line x1="180.8" y1="209.9" x2="146.1" y2="189.9" stroke="#aaaaaa" stroke-width="1.5" opacity="0.3"/><line x1="290.1" y1="180.8" x2="310.1" y2="146.1" stroke="#aaaaaa" stroke-width="1.5" opacity="0.3"/><circle cx="250" cy="250" r="50" fill="#1a1a2e" stroke="#aaaaaa" stroke-width="2"/><text x="250" y="242" text-anchor="middle" dominant-baseline="central" fill="#aaaaaa" font-family="'Courier New', monospace" font-weight="bold" font-size="20">#5</text><text x="250" y="268" text-anchor="middle" dominant-baseline="central" fill="#888888" font-family="'Courier New', monospace" font-size="12" opacity="0.7">COMMON</text><text x="250" y="460" text-anchor="middle" fill="#aaaaaa" font-family="'Courier New', monospace" font-size="14" opacity="0.4">CHIPTAP</text></svg>