<svg xmlns="http://www.w3.org/2000/svg" viewBox="0 0 500 500" width="500" height="500"><rect width="500" height="500" fill="#1a0a3e" rx="20"/><text x="124.0" y="351.1" fill="#AA44FF" opacity="0.08" font-size="16" text-anchor="middle" dominant-baseline="central">✦</text><text x="165.4" y="159.8" fill="#AA44FF" opacity="0.08" font-size="16" text-anchor="middle" dominant-baseline="central">✦</text><text x="231.7" y="342.5" fill="#AA44FF" opacity="0.08" font-size="16" text-anchor="middle" dominant-baseline="central">✦</text><text x="275.3" y="315.3" fill="#AA44FF" opacity="0.08" font-size="16" text-anchor="middle" dominant-baseline="central">✦</text><text x="174.5" y="370.0" fill="#AA44FF" opacity="0.08" font-size="16" text-anchor="middle" dominant-baseline="central">✦</text><text x="267.8" y="124.8" fill="#AA44FF" opacity="0.08" font-size="16" text-anchor="middle" dominant-baseline="central">✦</text><circle cx="250" cy="250" r="180" fill="#AA44FF" opacity="0.04"/><circle cx="250" cy="250" r="140" fill="#AA44FF" opacity="0.03"/><circle cx="250" cy="250" r="190" fill="none" stroke="#7722CC" stroke-width="4" opacity="0.4"/><circle cx="250" cy="250" r="180" fill="none" stroke="#7722CC" stroke-width="2.5"/><line x1="429.9" y1="255.4" x2="444.9" y2="255.9" stroke="#AA44FF" stroke-width="4" stroke-linecap="round"/><line x1="410.6" y1="331.2" x2="424.0" y2="338.0" stroke="#AA44FF" stroke-width="4" stroke-linecap="round"/><line x1="367.0" y1="386.8" x2="376.7" y2="398.2" stroke="#AA44FF" stroke-width="4" stroke-linecap="round"/><line x1="285.8" y1="426.4" x2="288.8" y2="441.1" stroke="#AA44FF" stroke-width="4" stroke-linecap="round"/><line x1="205.4" y1="424.4" x2="201.7" y2="438.9" stroke="#AA44FF" stroke-width="4" stroke-linecap="round"/><line x1="136.5" y1="389.7" x2="127.0" y2="401.3" stroke="#AA44FF" stroke-width="4" stroke-linecap="round"/><line x1="91.3" y1="334.9" x2="78.0" y2="341.9" stroke="#AA44FF" stroke-width="4" stroke-linecap="round"/><line x1="70.0" y1="248.2" x2="55.0" y2="248.1" stroke="#AA44FF" stroke-width="4" stroke-linecap="round"/><line x1="89.7" y1="168.2" x2="76.3" y2="161.4" stroke="#AA44FF" stroke-width="4" stroke-linecap="round"/><line x1="136.6" y1="110.2" x2="127.2" y2="98.5" stroke="#AA44FF" stroke-width="4" stroke-linecap="round"/><line x1="211.9" y1="74.1" x2="208.7" y2="59.4" stroke="#AA44FF" stroke-width="4" stroke-linecap="round"/><line x1="284.6" y1="73.4" x2="287.5" y2="58.6" stroke="#AA44FF" stroke-width="4" stroke-linecap="round"/><line x1="362.1" y1="109.1" x2="371.4" y2="97.4" stroke="#AA44FF" stroke-width="4" stroke-linecap="round"/><line x1="413.0" y1="173.6" x2="426.6" y2="167.3" stroke="#AA44FF" stroke-width="4" stroke-linecap="round"/><circle cx="250" cy="250" r="160" fill="#1a0a3e" stroke="#7722CC" stroke-width="2"/><circle cx="250" cy="250" r="120" fill="none" stroke="#5511AA" stroke-width="1" opacity="0.5"/><circle cx="250" cy="250" r="80" fill="none" stroke="#5511AA" stroke-width="1" opacity="0.3"/><line x1="269.2" y1="327.7" x2="278.8" y2="366.5" stroke="#AA44FF" stroke-width="1.5" opacity="0.3"/><line x1="172.3" y1="269.2" x2="133.5" y2="278.8" stroke="#AA44FF" stroke-width="1.5" opacity="0.3"/><line x1="230.8" y1="172.3" x2="221.2" y2="133.5" stroke="#AA44FF" stroke-width="1.5" opacity="0.3"/><line x1="327.7" y1="230.8" x2="366.5" y2="221.2" stroke="#AA44FF" stroke-width="1.5" opacity="0.3"/><circle cx="250" cy="250" r="50" fill="#1a0a3e" stroke="#AA44FF" stroke-width="2"/><text x="250" y="242" text-anchor="middle" dominant-baseline="central" fill="#AA44FF" font-family="'Courier New', monospace" font-weight="bold" font-size="20">#302</text><text x="250" y="268" text-anchor="middle" dominant-baseline="central" fill="#7722CC" font-family="'Courier New', monospace" font-size="12" opacity="0.7">EPIC</text><text x="250" y="460" text-anchor="middle" fill="#AA44FF" font-family="'Courier New', monospace" font-size="14" opacity="0.4">CHIPTAP</text></svg>