<svg xmlns="http://www.w3.org/2000/svg" viewBox="0 0 500 500" width="500" height="500"><rect width="500" height="500" fill="#2e2200" rx="20"/><line x1="250" y1="250" x2="450.0" y2="250.0" stroke="#FFD700" stroke-width="1" opacity="0.05"/><line x1="250" y1="250" x2="423.2" y2="350.0" stroke="#FFD700" stroke-width="1" opacity="0.05"/><line x1="250" y1="250" x2="350.0" y2="423.2" stroke="#FFD700" stroke-width="1" opacity="0.05"/><line x1="250" y1="250" x2="250.0" y2="450.0" stroke="#FFD700" stroke-width="1" opacity="0.05"/><line x1="250" y1="250" x2="150.0" y2="423.2" stroke="#FFD700" stroke-width="1" opacity="0.05"/><line x1="250" y1="250" x2="76.8" y2="350.0" stroke="#FFD700" stroke-width="1" opacity="0.05"/><line x1="250" y1="250" x2="50.0" y2="250.0" stroke="#FFD700" stroke-width="1" opacity="0.05"/><line x1="250" y1="250" x2="76.8" y2="150.0" stroke="#FFD700" stroke-width="1" opacity="0.05"/><line x1="250" y1="250" x2="150.0" y2="76.8" stroke="#FFD700" stroke-width="1" opacity="0.05"/><line x1="250" y1="250" x2="250.0" y2="50.0" stroke="#FFD700" stroke-width="1" opacity="0.05"/><line x1="250" y1="250" x2="350.0" y2="76.8" stroke="#FFD700" stroke-width="1" opacity="0.05"/><line x1="250" y1="250" x2="423.2" y2="150.0" stroke="#FFD700" stroke-width="1" opacity="0.05"/><circle cx="250" cy="250" r="180" fill="#FFD700" opacity="0.04"/><circle cx="250" cy="250" r="140" fill="#FFD700" opacity="0.03"/><circle cx="250" cy="250" r="190" fill="none" stroke="#CC9900" stroke-width="4" opacity="0.4"/><circle cx="250" cy="250" r="180" fill="none" stroke="#CC9900" stroke-width="2.5"/><line x1="430.0" y1="248.5" x2="445.0" y2="248.4" stroke="#FFD700" stroke-width="4" stroke-linecap="round"/><line x1="415.5" y1="320.8" x2="429.3" y2="326.7" stroke="#FFD700" stroke-width="4" stroke-linecap="round"/><line x1="376.1" y1="378.5" x2="386.6" y2="389.2" stroke="#FFD700" stroke-width="4" stroke-linecap="round"/><line x1="313.7" y1="418.3" x2="319.0" y2="432.4" stroke="#FFD700" stroke-width="4" stroke-linecap="round"/><line x1="249.7" y1="430.0" x2="249.7" y2="445.0" stroke="#FFD700" stroke-width="4" stroke-linecap="round"/><line x1="174.3" y1="413.3" x2="167.9" y2="426.9" stroke="#FFD700" stroke-width="4" stroke-linecap="round"/><line x1="120.5" y1="375.0" x2="109.7" y2="385.4" stroke="#FFD700" stroke-width="4" stroke-linecap="round"/><line x1="81.2" y1="312.4" x2="67.1" y2="317.6" stroke="#FFD700" stroke-width="4" stroke-linecap="round"/><line x1="70.2" y1="257.6" x2="55.2" y2="258.2" stroke="#FFD700" stroke-width="4" stroke-linecap="round"/><line x1="82.7" y1="183.6" x2="68.7" y2="178.1" stroke="#FFD700" stroke-width="4" stroke-linecap="round"/><line x1="120.0" y1="125.5" x2="109.2" y2="115.1" stroke="#FFD700" stroke-width="4" stroke-linecap="round"/><line x1="182.9" y1="83.0" x2="177.3" y2="69.0" stroke="#FFD700" stroke-width="4" stroke-linecap="round"/><line x1="247.9" y1="70.0" x2="247.7" y2="55.0" stroke="#FFD700" stroke-width="4" stroke-linecap="round"/><line x1="316.7" y1="82.8" x2="322.2" y2="68.9" stroke="#FFD700" stroke-width="4" stroke-linecap="round"/><line x1="379.0" y1="124.4" x2="389.7" y2="114.0" stroke="#FFD700" stroke-width="4" stroke-linecap="round"/><line x1="416.4" y1="181.4" x2="430.3" y2="175.7" stroke="#FFD700" stroke-width="4" stroke-linecap="round"/><circle cx="250" cy="250" r="160" fill="#2e2200" stroke="#CC9900" stroke-width="2"/><circle cx="250" cy="250" r="120" fill="none" stroke="#AA7700" stroke-width="1" opacity="0.5"/><circle cx="250" cy="250" r="80" fill="none" stroke="#AA7700" stroke-width="1" opacity="0.3"/><line x1="262.4" y1="329.0" x2="268.6" y2="368.5" stroke="#FFD700" stroke-width="1.5" opacity="0.3"/><line x1="171.0" y1="262.4" x2="131.5" y2="268.6" stroke="#FFD700" stroke-width="1.5" opacity="0.3"/><line x1="237.6" y1="171.0" x2="231.4" y2="131.5" stroke="#FFD700" stroke-width="1.5" opacity="0.3"/><line x1="329.0" y1="237.6" x2="368.5" y2="231.4" stroke="#FFD700" stroke-width="1.5" opacity="0.3"/><circle cx="250" cy="250" r="50" fill="#2e2200" stroke="#FFD700" stroke-width="2"/><text x="250" y="242" text-anchor="middle" dominant-baseline="central" fill="#FFD700" font-family="'Courier New', monospace" font-weight="bold" font-size="20">#403</text><text x="250" y="268" text-anchor="middle" dominant-baseline="central" fill="#CC9900" font-family="'Courier New', monospace" font-size="12" opacity="0.7">LEGENDARY</text><text x="250" y="460" text-anchor="middle" fill="#FFD700" font-family="'Courier New', monospace" font-size="14" opacity="0.4">CHIPTAP</text></svg>