<svg xmlns="http://www.w3.org/2000/svg" viewBox="0 0 500 500" width="500" height="500"><rect width="500" height="500" fill="#1a1a2e" rx="20"/><circle cx="215.7" cy="387.1" r="4.5" fill="#aaaaaa" opacity="0.08"/><circle cx="371.9" cy="164.9" r="3.1" fill="#aaaaaa" opacity="0.08"/><circle cx="261.7" cy="157.7" r="3.3" fill="#aaaaaa" opacity="0.08"/><circle cx="354.7" cy="368.3" r="4.0" fill="#aaaaaa" opacity="0.08"/><circle cx="299.9" cy="135.5" r="4.5" fill="#aaaaaa" opacity="0.08"/><circle cx="109.0" cy="211.4" r="2.6" fill="#aaaaaa" opacity="0.08"/><circle cx="105.2" cy="139.5" r="3.9" fill="#aaaaaa" opacity="0.08"/><circle cx="113.7" cy="178.9" r="4.4" fill="#aaaaaa" opacity="0.08"/><circle cx="232.7" cy="221.5" r="3.1" fill="#aaaaaa" opacity="0.08"/><circle cx="171.4" cy="238.0" r="3.1" fill="#aaaaaa" opacity="0.08"/><circle cx="213.0" cy="178.3" r="5.0" fill="#aaaaaa" opacity="0.08"/><circle cx="294.0" cy="165.9" r="4.1" fill="#aaaaaa" opacity="0.08"/><circle cx="250" cy="250" r="190" fill="none" stroke="#888888" stroke-width="4" opacity="0.4"/><circle cx="250" cy="250" r="180" fill="none" stroke="#888888" stroke-width="2.5"/><line x1="430.0" y1="249.1" x2="445.0" y2="249.0" stroke="#aaaaaa" stroke-width="4" stroke-linecap="round"/><line x1="381.3" y1="373.1" x2="392.3" y2="383.3" stroke="#aaaaaa" stroke-width="4" stroke-linecap="round"/><line x1="251.0" y1="430.0" x2="251.1" y2="445.0" stroke="#aaaaaa" stroke-width="4" stroke-linecap="round"/><line x1="127.6" y1="382.0" x2="117.4" y2="393.0" stroke="#aaaaaa" stroke-width="4" stroke-linecap="round"/><line x1="70.0" y1="248.1" x2="55.0" y2="247.9" stroke="#aaaaaa" stroke-width="4" stroke-linecap="round"/><line x1="128.3" y1="117.4" x2="118.1" y2="106.4" stroke="#aaaaaa" stroke-width="4" stroke-linecap="round"/><line x1="249.9" y1="70.0" x2="249.8" y2="55.0" stroke="#aaaaaa" stroke-width="4" stroke-linecap="round"/><line x1="379.3" y1="124.8" x2="390.1" y2="114.4" stroke="#aaaaaa" stroke-width="4" stroke-linecap="round"/><circle cx="250" cy="250" r="160" fill="#1a1a2e" stroke="#888888" stroke-width="2"/><circle cx="250" cy="250" r="120" fill="none" stroke="#666666" stroke-width="1" opacity="0.5"/><circle cx="250" cy="250" r="80" fill="none" stroke="#666666" stroke-width="1" opacity="0.3"/><line x1="325.6" y1="276.2" x2="363.4" y2="289.4" stroke="#aaaaaa" stroke-width="1.5" opacity="0.3"/><line x1="223.8" y1="325.6" x2="210.6" y2="363.4" stroke="#aaaaaa" stroke-width="1.5" opacity="0.3"/><line x1="174.4" y1="223.8" x2="136.6" y2="210.6" stroke="#aaaaaa" stroke-width="1.5" opacity="0.3"/><line x1="276.2" y1="174.4" x2="289.4" y2="136.6" stroke="#aaaaaa" stroke-width="1.5" opacity="0.3"/><circle cx="250" cy="250" r="50" fill="#1a1a2e" stroke="#aaaaaa" stroke-width="2"/><text x="250" y="242" text-anchor="middle" dominant-baseline="central" fill="#aaaaaa" font-family="'Courier New', monospace" font-weight="bold" font-size="20">#3</text><text x="250" y="268" text-anchor="middle" dominant-baseline="central" fill="#888888" font-family="'Courier New', monospace" font-size="12" opacity="0.7">COMMON</text><text x="250" y="460" text-anchor="middle" fill="#aaaaaa" font-family="'Courier New', monospace" font-size="14" opacity="0.4">CHIPTAP</text></svg>