<svg xmlns="http://www.w3.org/2000/svg" viewBox="0 0 500 500" width="500" height="500"><rect width="500" height="500" fill="#0a1a3e" rx="20"/><rect x="299.4" y="144.5" width="14.3" height="14.3" fill="none" stroke="#3399FF" stroke-width="0.5" opacity="0.1" transform="rotate(45 306.5 151.6)"/><rect x="185.5" y="244.9" width="12.5" height="12.5" fill="none" stroke="#3399FF" stroke-width="0.5" opacity="0.1" transform="rotate(45 191.8 251.2)"/><rect x="245.9" y="328.5" width="19.8" height="19.8" fill="none" stroke="#3399FF" stroke-width="0.5" opacity="0.1" transform="rotate(45 255.8 338.4)"/><rect x="194.4" y="210.1" width="13.2" height="13.2" fill="none" stroke="#3399FF" stroke-width="0.5" opacity="0.1" transform="rotate(45 201.0 216.7)"/><rect x="269.2" y="166.5" width="16.6" height="16.6" fill="none" stroke="#3399FF" stroke-width="0.5" opacity="0.1" transform="rotate(45 277.5 174.8)"/><rect x="256.7" y="276.5" width="10.4" height="10.4" fill="none" stroke="#3399FF" stroke-width="0.5" opacity="0.1" transform="rotate(45 261.8 281.7)"/><rect x="260.0" y="240.3" width="14.7" height="14.7" fill="none" stroke="#3399FF" stroke-width="0.5" opacity="0.1" transform="rotate(45 267.3 247.6)"/><rect x="238.0" y="240.4" width="12.8" height="12.8" fill="none" stroke="#3399FF" stroke-width="0.5" opacity="0.1" transform="rotate(45 244.4 246.8)"/><circle cx="250" cy="250" r="180" fill="#3399FF" opacity="0.04"/><circle cx="250" cy="250" r="140" fill="#3399FF" opacity="0.03"/><circle cx="250" cy="250" r="190" fill="none" stroke="#2266CC" stroke-width="4" opacity="0.4"/><circle cx="250" cy="250" r="180" fill="none" stroke="#2266CC" stroke-width="2.5"/><line x1="430.0" y1="248.8" x2="445.0" y2="248.7" stroke="#3399FF" stroke-width="4" stroke-linecap="round"/><line x1="406.8" y1="338.4" x2="419.9" y2="345.7" stroke="#3399FF" stroke-width="4" stroke-linecap="round"/><line x1="346.4" y1="402.0" x2="354.5" y2="414.7" stroke="#3399FF" stroke-width="4" stroke-linecap="round"/><line x1="242.8" y1="429.9" x2="242.2" y2="444.8" stroke="#3399FF" stroke-width="4" stroke-linecap="round"/><line x1="159.0" y1="405.3" x2="151.4" y2="418.3" stroke="#3399FF" stroke-width="4" stroke-linecap="round"/><line x1="94.2" y1="340.2" x2="81.3" y2="347.8" stroke="#3399FF" stroke-width="4" stroke-linecap="round"/><line x1="70.1" y1="256.3" x2="55.1" y2="256.9" stroke="#3399FF" stroke-width="4" stroke-linecap="round"/><line x1="92.7" y1="162.5" x2="79.6" y2="155.3" stroke="#3399FF" stroke-width="4" stroke-linecap="round"/><line x1="160.5" y1="93.8" x2="153.0" y2="80.8" stroke="#3399FF" stroke-width="4" stroke-linecap="round"/><line x1="247.7" y1="70.0" x2="247.6" y2="55.0" stroke="#3399FF" stroke-width="4" stroke-linecap="round"/><line x1="334.6" y1="91.1" x2="341.6" y2="77.9" stroke="#3399FF" stroke-width="4" stroke-linecap="round"/><line x1="407.6" y1="163.0" x2="420.7" y2="155.8" stroke="#3399FF" stroke-width="4" stroke-linecap="round"/><circle cx="250" cy="250" r="160" fill="#0a1a3e" stroke="#2266CC" stroke-width="2"/><circle cx="250" cy="250" r="120" fill="none" stroke="#1144AA" stroke-width="1" opacity="0.5"/><circle cx="250" cy="250" r="80" fill="none" stroke="#1144AA" stroke-width="1" opacity="0.3"/><line x1="302.6" y1="310.3" x2="328.9" y2="340.4" stroke="#3399FF" stroke-width="1.5" opacity="0.3"/><line x1="189.7" y1="302.6" x2="159.6" y2="328.9" stroke="#3399FF" stroke-width="1.5" opacity="0.3"/><line x1="197.4" y1="189.7" x2="171.1" y2="159.6" stroke="#3399FF" stroke-width="1.5" opacity="0.3"/><line x1="310.3" y1="197.4" x2="340.4" y2="171.1" stroke="#3399FF" stroke-width="1.5" opacity="0.3"/><circle cx="250" cy="250" r="50" fill="#0a1a3e" stroke="#3399FF" stroke-width="2"/><text x="250" y="242" text-anchor="middle" dominant-baseline="central" fill="#3399FF" font-family="'Courier New', monospace" font-weight="bold" font-size="20">#203</text><text x="250" y="268" text-anchor="middle" dominant-baseline="central" fill="#2266CC" font-family="'Courier New', monospace" font-size="12" opacity="0.7">RARE</text><text x="250" y="460" text-anchor="middle" fill="#3399FF" font-family="'Courier New', monospace" font-size="14" opacity="0.4">CHIPTAP</text></svg>