<svg xmlns="http://www.w3.org/2000/svg" viewBox="0 0 500 500" width="500" height="500"><rect width="500" height="500" fill="#0a1a3e" rx="20"/><rect x="188.1" y="168.2" width="14.4" height="14.4" fill="none" stroke="#3399FF" stroke-width="0.5" opacity="0.1" transform="rotate(45 195.3 175.4)"/><rect x="148.2" y="316.2" width="18.4" height="18.4" fill="none" stroke="#3399FF" stroke-width="0.5" opacity="0.1" transform="rotate(45 157.4 325.4)"/><rect x="335.0" y="277.8" width="8.3" height="8.3" fill="none" stroke="#3399FF" stroke-width="0.5" opacity="0.1" transform="rotate(45 339.1 282.0)"/><rect x="311.0" y="185.5" width="9.3" height="9.3" fill="none" stroke="#3399FF" stroke-width="0.5" opacity="0.1" transform="rotate(45 315.6 190.1)"/><rect x="212.8" y="183.8" width="10.2" height="10.2" fill="none" stroke="#3399FF" stroke-width="0.5" opacity="0.1" transform="rotate(45 217.9 188.9)"/><rect x="300.5" y="174.2" width="13.2" height="13.2" fill="none" stroke="#3399FF" stroke-width="0.5" opacity="0.1" transform="rotate(45 307.1 180.7)"/><rect x="142.5" y="334.4" width="15.0" height="15.0" fill="none" stroke="#3399FF" stroke-width="0.5" opacity="0.1" transform="rotate(45 150.0 341.9)"/><rect x="197.7" y="289.1" width="15.3" height="15.3" fill="none" stroke="#3399FF" stroke-width="0.5" opacity="0.1" transform="rotate(45 205.3 296.7)"/><circle cx="250" cy="250" r="180" fill="#3399FF" opacity="0.04"/><circle cx="250" cy="250" r="140" fill="#3399FF" opacity="0.03"/><circle cx="250" cy="250" r="190" fill="none" stroke="#2266CC" stroke-width="4" opacity="0.4"/><circle cx="250" cy="250" r="180" fill="none" stroke="#2266CC" stroke-width="2.5"/><line x1="430.0" y1="249.9" x2="445.0" y2="249.9" stroke="#3399FF" stroke-width="4" stroke-linecap="round"/><line x1="404.6" y1="342.2" x2="417.5" y2="349.9" stroke="#3399FF" stroke-width="4" stroke-linecap="round"/><line x1="343.7" y1="403.7" x2="351.5" y2="416.5" stroke="#3399FF" stroke-width="4" stroke-linecap="round"/><line x1="256.4" y1="429.9" x2="256.9" y2="444.9" stroke="#3399FF" stroke-width="4" stroke-linecap="round"/><line x1="162.5" y1="407.3" x2="155.2" y2="420.4" stroke="#3399FF" stroke-width="4" stroke-linecap="round"/><line x1="93.3" y1="338.6" x2="80.2" y2="345.9" stroke="#3399FF" stroke-width="4" stroke-linecap="round"/><line x1="70.0" y1="250.3" x2="55.0" y2="250.4" stroke="#3399FF" stroke-width="4" stroke-linecap="round"/><line x1="92.8" y1="162.3" x2="79.7" y2="155.0" stroke="#3399FF" stroke-width="4" stroke-linecap="round"/><line x1="154.0" y1="97.8" x2="146.0" y2="85.1" stroke="#3399FF" stroke-width="4" stroke-linecap="round"/><line x1="246.7" y1="70.0" x2="246.4" y2="55.0" stroke="#3399FF" stroke-width="4" stroke-linecap="round"/><line x1="335.3" y1="91.5" x2="342.4" y2="78.3" stroke="#3399FF" stroke-width="4" stroke-linecap="round"/><line x1="407.8" y1="163.4" x2="421.0" y2="156.2" stroke="#3399FF" stroke-width="4" stroke-linecap="round"/><circle cx="250" cy="250" r="160" fill="#0a1a3e" stroke="#2266CC" stroke-width="2"/><circle cx="250" cy="250" r="120" fill="none" stroke="#1144AA" stroke-width="1" opacity="0.5"/><circle cx="250" cy="250" r="80" fill="none" stroke="#1144AA" stroke-width="1" opacity="0.3"/><line x1="314.7" y1="203.0" x2="347.1" y2="179.4" stroke="#3399FF" stroke-width="1.5" opacity="0.3"/><line x1="297.0" y1="314.7" x2="320.6" y2="347.1" stroke="#3399FF" stroke-width="1.5" opacity="0.3"/><line x1="185.3" y1="297.0" x2="152.9" y2="320.6" stroke="#3399FF" stroke-width="1.5" opacity="0.3"/><line x1="203.0" y1="185.3" x2="179.4" y2="152.9" stroke="#3399FF" stroke-width="1.5" opacity="0.3"/><circle cx="250" cy="250" r="50" fill="#0a1a3e" stroke="#3399FF" stroke-width="2"/><text x="250" y="242" text-anchor="middle" dominant-baseline="central" fill="#3399FF" font-family="'Courier New', monospace" font-weight="bold" font-size="20">#204</text><text x="250" y="268" text-anchor="middle" dominant-baseline="central" fill="#2266CC" font-family="'Courier New', monospace" font-size="12" opacity="0.7">RARE</text><text x="250" y="460" text-anchor="middle" fill="#3399FF" font-family="'Courier New', monospace" font-size="14" opacity="0.4">CHIPTAP</text></svg>