<svg xmlns="http://www.w3.org/2000/svg" viewBox="0 0 500 500" width="500" height="500"><rect width="500" height="500" fill="#1a0a3e" rx="20"/><text x="121.9" y="135.7" fill="#AA44FF" opacity="0.08" font-size="16" text-anchor="middle" dominant-baseline="central">✦</text><text x="328.9" y="292.8" fill="#AA44FF" opacity="0.08" font-size="16" text-anchor="middle" dominant-baseline="central">✦</text><text x="123.4" y="155.9" fill="#AA44FF" opacity="0.08" font-size="16" text-anchor="middle" dominant-baseline="central">✦</text><text x="264.5" y="166.4" fill="#AA44FF" opacity="0.08" font-size="16" text-anchor="middle" dominant-baseline="central">✦</text><text x="209.1" y="195.1" fill="#AA44FF" opacity="0.08" font-size="16" text-anchor="middle" dominant-baseline="central">✦</text><text x="345.3" y="366.4" fill="#AA44FF" opacity="0.08" font-size="16" text-anchor="middle" dominant-baseline="central">✦</text><circle cx="250" cy="250" r="180" fill="#AA44FF" opacity="0.04"/><circle cx="250" cy="250" r="140" fill="#AA44FF" opacity="0.03"/><circle cx="250" cy="250" r="190" fill="none" stroke="#7722CC" stroke-width="4" opacity="0.4"/><circle cx="250" cy="250" r="180" fill="none" stroke="#7722CC" stroke-width="2.5"/><line x1="429.9" y1="254.4" x2="444.9" y2="254.7" stroke="#AA44FF" stroke-width="4" stroke-linecap="round"/><line x1="412.6" y1="327.3" x2="426.1" y2="333.7" stroke="#AA44FF" stroke-width="4" stroke-linecap="round"/><line x1="357.2" y1="394.6" x2="366.1" y2="406.7" stroke="#AA44FF" stroke-width="4" stroke-linecap="round"/><line x1="287.9" y1="426.0" x2="291.0" y2="440.6" stroke="#AA44FF" stroke-width="4" stroke-linecap="round"/><line x1="216.8" y1="426.9" x2="214.1" y2="441.7" stroke="#AA44FF" stroke-width="4" stroke-linecap="round"/><line x1="138.0" y1="390.9" x2="128.6" y2="402.6" stroke="#AA44FF" stroke-width="4" stroke-linecap="round"/><line x1="86.9" y1="326.2" x2="73.3" y2="332.5" stroke="#AA44FF" stroke-width="4" stroke-linecap="round"/><line x1="70.0" y1="248.5" x2="55.0" y2="248.3" stroke="#AA44FF" stroke-width="4" stroke-linecap="round"/><line x1="86.1" y1="175.5" x2="72.5" y2="169.3" stroke="#AA44FF" stroke-width="4" stroke-linecap="round"/><line x1="137.4" y1="109.5" x2="128.1" y2="97.8" stroke="#AA44FF" stroke-width="4" stroke-linecap="round"/><line x1="211.1" y1="74.3" x2="207.8" y2="59.6" stroke="#AA44FF" stroke-width="4" stroke-linecap="round"/><line x1="284.2" y1="73.3" x2="287.0" y2="58.5" stroke="#AA44FF" stroke-width="4" stroke-linecap="round"/><line x1="364.9" y1="111.5" x2="374.5" y2="99.9" stroke="#AA44FF" stroke-width="4" stroke-linecap="round"/><line x1="409.9" y1="167.4" x2="423.2" y2="160.5" stroke="#AA44FF" stroke-width="4" stroke-linecap="round"/><circle cx="250" cy="250" r="160" fill="#1a0a3e" stroke="#7722CC" stroke-width="2"/><circle cx="250" cy="250" r="120" fill="none" stroke="#5511AA" stroke-width="1" opacity="0.5"/><circle cx="250" cy="250" r="80" fill="none" stroke="#5511AA" stroke-width="1" opacity="0.3"/><line x1="316.9" y1="293.9" x2="350.3" y2="315.9" stroke="#AA44FF" stroke-width="1.5" opacity="0.3"/><line x1="206.1" y1="316.9" x2="184.1" y2="350.3" stroke="#AA44FF" stroke-width="1.5" opacity="0.3"/><line x1="183.1" y1="206.1" x2="149.7" y2="184.1" stroke="#AA44FF" stroke-width="1.5" opacity="0.3"/><line x1="293.9" y1="183.1" x2="315.9" y2="149.7" stroke="#AA44FF" stroke-width="1.5" opacity="0.3"/><circle cx="250" cy="250" r="50" fill="#1a0a3e" stroke="#AA44FF" stroke-width="2"/><text x="250" y="242" text-anchor="middle" dominant-baseline="central" fill="#AA44FF" font-family="'Courier New', monospace" font-weight="bold" font-size="20">#301</text><text x="250" y="268" text-anchor="middle" dominant-baseline="central" fill="#7722CC" font-family="'Courier New', monospace" font-size="12" opacity="0.7">EPIC</text><text x="250" y="460" text-anchor="middle" fill="#AA44FF" font-family="'Courier New', monospace" font-size="14" opacity="0.4">CHIPTAP</text></svg>