<svg xmlns="http://www.w3.org/2000/svg" viewBox="0 0 500 500" width="500" height="500"><rect width="500" height="500" fill="#1a1a2e" rx="20"/><circle cx="196.1" cy="103.1" r="4.5" fill="#aaaaaa" opacity="0.08"/><circle cx="301.1" cy="298.0" r="3.4" fill="#aaaaaa" opacity="0.08"/><circle cx="264.1" cy="106.2" r="4.4" fill="#aaaaaa" opacity="0.08"/><circle cx="201.3" cy="193.3" r="3.2" fill="#aaaaaa" opacity="0.08"/><circle cx="312.4" cy="307.3" r="4.1" fill="#aaaaaa" opacity="0.08"/><circle cx="310.8" cy="122.0" r="2.8" fill="#aaaaaa" opacity="0.08"/><circle cx="245.7" cy="207.3" r="2.3" fill="#aaaaaa" opacity="0.08"/><circle cx="184.0" cy="302.9" r="2.8" fill="#aaaaaa" opacity="0.08"/><circle cx="239.3" cy="162.8" r="3.9" fill="#aaaaaa" opacity="0.08"/><circle cx="234.2" cy="366.7" r="2.5" fill="#aaaaaa" opacity="0.08"/><circle cx="294.2" cy="381.9" r="4.9" fill="#aaaaaa" opacity="0.08"/><circle cx="399.2" cy="306.3" r="2.7" fill="#aaaaaa" opacity="0.08"/><circle cx="250" cy="250" r="190" fill="none" stroke="#888888" stroke-width="4" opacity="0.4"/><circle cx="250" cy="250" r="180" fill="none" stroke="#888888" stroke-width="2.5"/><line x1="430.0" y1="250.2" x2="445.0" y2="250.2" stroke="#aaaaaa" stroke-width="4" stroke-linecap="round"/><line x1="378.3" y1="376.3" x2="389.0" y2="386.8" stroke="#aaaaaa" stroke-width="4" stroke-linecap="round"/><line x1="247.8" y1="430.0" x2="247.6" y2="445.0" stroke="#aaaaaa" stroke-width="4" stroke-linecap="round"/><line x1="126.1" y1="380.6" x2="115.8" y2="391.5" stroke="#aaaaaa" stroke-width="4" stroke-linecap="round"/><line x1="70.0" y1="252.1" x2="55.0" y2="252.2" stroke="#aaaaaa" stroke-width="4" stroke-linecap="round"/><line x1="118.5" y1="127.1" x2="107.5" y2="116.9" stroke="#aaaaaa" stroke-width="4" stroke-linecap="round"/><line x1="255.9" y1="70.1" x2="256.3" y2="55.1" stroke="#aaaaaa" stroke-width="4" stroke-linecap="round"/><line x1="379.5" y1="125.0" x2="390.3" y2="114.6" stroke="#aaaaaa" stroke-width="4" stroke-linecap="round"/><circle cx="250" cy="250" r="160" fill="#1a1a2e" stroke="#888888" stroke-width="2"/><circle cx="250" cy="250" r="120" fill="none" stroke="#666666" stroke-width="1" opacity="0.5"/><circle cx="250" cy="250" r="80" fill="none" stroke="#666666" stroke-width="1" opacity="0.3"/><line x1="177.3" y1="216.7" x2="140.9" y2="200.0" stroke="#aaaaaa" stroke-width="1.5" opacity="0.3"/><line x1="283.3" y1="177.3" x2="300.0" y2="140.9" stroke="#aaaaaa" stroke-width="1.5" opacity="0.3"/><line x1="322.7" y1="283.3" x2="359.1" y2="300.0" stroke="#aaaaaa" stroke-width="1.5" opacity="0.3"/><line x1="216.7" y1="322.7" x2="200.0" y2="359.1" stroke="#aaaaaa" stroke-width="1.5" opacity="0.3"/><circle cx="250" cy="250" r="50" fill="#1a1a2e" stroke="#aaaaaa" stroke-width="2"/><text x="250" y="242" text-anchor="middle" dominant-baseline="central" fill="#aaaaaa" font-family="'Courier New', monospace" font-weight="bold" font-size="20">#4</text><text x="250" y="268" text-anchor="middle" dominant-baseline="central" fill="#888888" font-family="'Courier New', monospace" font-size="12" opacity="0.7">COMMON</text><text x="250" y="460" text-anchor="middle" fill="#aaaaaa" font-family="'Courier New', monospace" font-size="14" opacity="0.4">CHIPTAP</text></svg>