<svg xmlns="http://www.w3.org/2000/svg" viewBox="0 0 500 500" width="500" height="500"><rect width="500" height="500" fill="#0a1a3e" rx="20"/><rect x="322.0" y="297.0" width="14.1" height="14.1" fill="none" stroke="#3399FF" stroke-width="0.5" opacity="0.1" transform="rotate(45 329.0 304.0)"/><rect x="254.1" y="296.2" width="12.8" height="12.8" fill="none" stroke="#3399FF" stroke-width="0.5" opacity="0.1" transform="rotate(45 260.5 302.6)"/><rect x="279.8" y="241.9" width="18.8" height="18.8" fill="none" stroke="#3399FF" stroke-width="0.5" opacity="0.1" transform="rotate(45 289.2 251.3)"/><rect x="167.4" y="265.4" width="9.1" height="9.1" fill="none" stroke="#3399FF" stroke-width="0.5" opacity="0.1" transform="rotate(45 172.0 270.0)"/><rect x="188.0" y="338.0" width="17.4" height="17.4" fill="none" stroke="#3399FF" stroke-width="0.5" opacity="0.1" transform="rotate(45 196.7 346.6)"/><rect x="163.0" y="275.2" width="16.7" height="16.7" fill="none" stroke="#3399FF" stroke-width="0.5" opacity="0.1" transform="rotate(45 171.4 283.6)"/><rect x="294.8" y="252.1" width="14.2" height="14.2" fill="none" stroke="#3399FF" stroke-width="0.5" opacity="0.1" transform="rotate(45 301.9 259.2)"/><rect x="312.7" y="337.0" width="19.8" height="19.8" fill="none" stroke="#3399FF" stroke-width="0.5" opacity="0.1" transform="rotate(45 322.6 346.9)"/><circle cx="250" cy="250" r="180" fill="#3399FF" opacity="0.04"/><circle cx="250" cy="250" r="140" fill="#3399FF" opacity="0.03"/><circle cx="250" cy="250" r="190" fill="none" stroke="#2266CC" stroke-width="4" opacity="0.4"/><circle cx="250" cy="250" r="180" fill="none" stroke="#2266CC" stroke-width="2.5"/><line x1="430.0" y1="246.6" x2="445.0" y2="246.4" stroke="#3399FF" stroke-width="4" stroke-linecap="round"/><line x1="403.4" y1="344.2" x2="416.1" y2="352.1" stroke="#3399FF" stroke-width="4" stroke-linecap="round"/><line x1="338.5" y1="406.8" x2="345.9" y2="419.8" stroke="#3399FF" stroke-width="4" stroke-linecap="round"/><line x1="246.9" y1="430.0" x2="246.7" y2="445.0" stroke="#3399FF" stroke-width="4" stroke-linecap="round"/><line x1="165.8" y1="409.1" x2="158.8" y2="422.3" stroke="#3399FF" stroke-width="4" stroke-linecap="round"/><line x1="96.2" y1="343.5" x2="83.4" y2="351.3" stroke="#3399FF" stroke-width="4" stroke-linecap="round"/><line x1="70.0" y1="252.6" x2="55.0" y2="252.9" stroke="#3399FF" stroke-width="4" stroke-linecap="round"/><line x1="92.4" y1="163.0" x2="79.3" y2="155.7" stroke="#3399FF" stroke-width="4" stroke-linecap="round"/><line x1="160.1" y1="94.1" x2="152.6" y2="81.1" stroke="#3399FF" stroke-width="4" stroke-linecap="round"/><line x1="249.8" y1="70.0" x2="249.8" y2="55.0" stroke="#3399FF" stroke-width="4" stroke-linecap="round"/><line x1="346.7" y1="98.2" x2="354.8" y2="85.5" stroke="#3399FF" stroke-width="4" stroke-linecap="round"/><line x1="407.2" y1="162.3" x2="420.3" y2="155.0" stroke="#3399FF" stroke-width="4" stroke-linecap="round"/><circle cx="250" cy="250" r="160" fill="#0a1a3e" stroke="#2266CC" stroke-width="2"/><circle cx="250" cy="250" r="120" fill="none" stroke="#1144AA" stroke-width="1" opacity="0.5"/><circle cx="250" cy="250" r="80" fill="none" stroke="#1144AA" stroke-width="1" opacity="0.3"/><line x1="187.6" y1="200.0" x2="156.4" y2="175.0" stroke="#3399FF" stroke-width="1.5" opacity="0.3"/><line x1="300.0" y1="187.6" x2="325.0" y2="156.4" stroke="#3399FF" stroke-width="1.5" opacity="0.3"/><line x1="312.4" y1="300.0" x2="343.6" y2="325.0" stroke="#3399FF" stroke-width="1.5" opacity="0.3"/><line x1="200.0" y1="312.4" x2="175.0" y2="343.6" stroke="#3399FF" stroke-width="1.5" opacity="0.3"/><circle cx="250" cy="250" r="50" fill="#0a1a3e" stroke="#3399FF" stroke-width="2"/><text x="250" y="242" text-anchor="middle" dominant-baseline="central" fill="#3399FF" font-family="'Courier New', monospace" font-weight="bold" font-size="20">#201</text><text x="250" y="268" text-anchor="middle" dominant-baseline="central" fill="#2266CC" font-family="'Courier New', monospace" font-size="12" opacity="0.7">RARE</text><text x="250" y="460" text-anchor="middle" fill="#3399FF" font-family="'Courier New', monospace" font-size="14" opacity="0.4">CHIPTAP</text></svg>