<svg xmlns="http://www.w3.org/2000/svg" viewBox="0 0 500 500" width="500" height="500"><rect width="500" height="500" fill="#1a0a3e" rx="20"/><text x="126.1" y="306.4" fill="#AA44FF" opacity="0.08" font-size="16" text-anchor="middle" dominant-baseline="central">✦</text><text x="261.9" y="286.8" fill="#AA44FF" opacity="0.08" font-size="16" text-anchor="middle" dominant-baseline="central">✦</text><text x="340.0" y="269.2" fill="#AA44FF" opacity="0.08" font-size="16" text-anchor="middle" dominant-baseline="central">✦</text><text x="286.1" y="204.2" fill="#AA44FF" opacity="0.08" font-size="16" text-anchor="middle" dominant-baseline="central">✦</text><text x="139.9" y="284.9" fill="#AA44FF" opacity="0.08" font-size="16" text-anchor="middle" dominant-baseline="central">✦</text><text x="190.3" y="143.1" fill="#AA44FF" opacity="0.08" font-size="16" text-anchor="middle" dominant-baseline="central">✦</text><circle cx="250" cy="250" r="180" fill="#AA44FF" opacity="0.04"/><circle cx="250" cy="250" r="140" fill="#AA44FF" opacity="0.03"/><circle cx="250" cy="250" r="190" fill="none" stroke="#7722CC" stroke-width="4" opacity="0.4"/><circle cx="250" cy="250" r="180" fill="none" stroke="#7722CC" stroke-width="2.5"/><line x1="429.9" y1="256.5" x2="444.9" y2="257.1" stroke="#AA44FF" stroke-width="4" stroke-linecap="round"/><line x1="415.4" y1="321.0" x2="429.2" y2="327.0" stroke="#AA44FF" stroke-width="4" stroke-linecap="round"/><line x1="364.5" y1="388.9" x2="374.0" y2="400.5" stroke="#AA44FF" stroke-width="4" stroke-linecap="round"/><line x1="283.8" y1="426.8" x2="286.6" y2="441.5" stroke="#AA44FF" stroke-width="4" stroke-linecap="round"/><line x1="209.2" y1="425.3" x2="205.9" y2="439.9" stroke="#AA44FF" stroke-width="4" stroke-linecap="round"/><line x1="135.0" y1="388.4" x2="125.4" y2="400.0" stroke="#AA44FF" stroke-width="4" stroke-linecap="round"/><line x1="88.5" y1="329.5" x2="75.1" y2="336.1" stroke="#AA44FF" stroke-width="4" stroke-linecap="round"/><line x1="70.0" y1="248.0" x2="55.0" y2="247.8" stroke="#AA44FF" stroke-width="4" stroke-linecap="round"/><line x1="86.3" y1="175.1" x2="72.7" y2="168.8" stroke="#AA44FF" stroke-width="4" stroke-linecap="round"/><line x1="135.8" y1="110.8" x2="126.3" y2="99.2" stroke="#AA44FF" stroke-width="4" stroke-linecap="round"/><line x1="212.7" y1="73.9" x2="209.6" y2="59.2" stroke="#AA44FF" stroke-width="4" stroke-linecap="round"/><line x1="285.0" y1="73.4" x2="288.0" y2="58.7" stroke="#AA44FF" stroke-width="4" stroke-linecap="round"/><line x1="359.1" y1="106.9" x2="368.2" y2="94.9" stroke="#AA44FF" stroke-width="4" stroke-linecap="round"/><line x1="409.1" y1="165.8" x2="422.4" y2="158.8" stroke="#AA44FF" stroke-width="4" stroke-linecap="round"/><circle cx="250" cy="250" r="160" fill="#1a0a3e" stroke="#7722CC" stroke-width="2"/><circle cx="250" cy="250" r="120" fill="none" stroke="#5511AA" stroke-width="1" opacity="0.5"/><circle cx="250" cy="250" r="80" fill="none" stroke="#5511AA" stroke-width="1" opacity="0.3"/><line x1="211.3" y1="320.0" x2="191.9" y2="355.0" stroke="#AA44FF" stroke-width="1.5" opacity="0.3"/><line x1="180.0" y1="211.3" x2="145.0" y2="191.9" stroke="#AA44FF" stroke-width="1.5" opacity="0.3"/><line x1="288.7" y1="180.0" x2="308.1" y2="145.0" stroke="#AA44FF" stroke-width="1.5" opacity="0.3"/><line x1="320.0" y1="288.7" x2="355.0" y2="308.1" stroke="#AA44FF" stroke-width="1.5" opacity="0.3"/><circle cx="250" cy="250" r="50" fill="#1a0a3e" stroke="#AA44FF" stroke-width="2"/><text x="250" y="242" text-anchor="middle" dominant-baseline="central" fill="#AA44FF" font-family="'Courier New', monospace" font-weight="bold" font-size="20">#303</text><text x="250" y="268" text-anchor="middle" dominant-baseline="central" fill="#7722CC" font-family="'Courier New', monospace" font-size="12" opacity="0.7">EPIC</text><text x="250" y="460" text-anchor="middle" fill="#AA44FF" font-family="'Courier New', monospace" font-size="14" opacity="0.4">CHIPTAP</text></svg>