<svg xmlns="http://www.w3.org/2000/svg" viewBox="0 0 500 500" width="500" height="500"><rect width="500" height="500" fill="#2e2200" rx="20"/><line x1="250" y1="250" x2="450.0" y2="250.0" stroke="#FFD700" stroke-width="1" opacity="0.05"/><line x1="250" y1="250" x2="423.2" y2="350.0" stroke="#FFD700" stroke-width="1" opacity="0.05"/><line x1="250" y1="250" x2="350.0" y2="423.2" stroke="#FFD700" stroke-width="1" opacity="0.05"/><line x1="250" y1="250" x2="250.0" y2="450.0" stroke="#FFD700" stroke-width="1" opacity="0.05"/><line x1="250" y1="250" x2="150.0" y2="423.2" stroke="#FFD700" stroke-width="1" opacity="0.05"/><line x1="250" y1="250" x2="76.8" y2="350.0" stroke="#FFD700" stroke-width="1" opacity="0.05"/><line x1="250" y1="250" x2="50.0" y2="250.0" stroke="#FFD700" stroke-width="1" opacity="0.05"/><line x1="250" y1="250" x2="76.8" y2="150.0" stroke="#FFD700" stroke-width="1" opacity="0.05"/><line x1="250" y1="250" x2="150.0" y2="76.8" stroke="#FFD700" stroke-width="1" opacity="0.05"/><line x1="250" y1="250" x2="250.0" y2="50.0" stroke="#FFD700" stroke-width="1" opacity="0.05"/><line x1="250" y1="250" x2="350.0" y2="76.8" stroke="#FFD700" stroke-width="1" opacity="0.05"/><line x1="250" y1="250" x2="423.2" y2="150.0" stroke="#FFD700" stroke-width="1" opacity="0.05"/><circle cx="250" cy="250" r="180" fill="#FFD700" opacity="0.04"/><circle cx="250" cy="250" r="140" fill="#FFD700" opacity="0.03"/><circle cx="250" cy="250" r="190" fill="none" stroke="#CC9900" stroke-width="4" opacity="0.4"/><circle cx="250" cy="250" r="180" fill="none" stroke="#CC9900" stroke-width="2.5"/><line x1="430.0" y1="247.4" x2="445.0" y2="247.2" stroke="#FFD700" stroke-width="4" stroke-linecap="round"/><line x1="417.2" y1="316.7" x2="431.1" y2="322.3" stroke="#FFD700" stroke-width="4" stroke-linecap="round"/><line x1="378.3" y1="376.2" x2="389.0" y2="386.7" stroke="#FFD700" stroke-width="4" stroke-linecap="round"/><line x1="315.7" y1="417.6" x2="321.1" y2="431.6" stroke="#FFD700" stroke-width="4" stroke-linecap="round"/><line x1="245.7" y1="429.9" x2="245.3" y2="444.9" stroke="#FFD700" stroke-width="4" stroke-linecap="round"/><line x1="176.0" y1="414.1" x2="169.8" y2="427.8" stroke="#FFD700" stroke-width="4" stroke-linecap="round"/><line x1="124.7" y1="379.3" x2="114.3" y2="390.0" stroke="#FFD700" stroke-width="4" stroke-linecap="round"/><line x1="81.3" y1="312.6" x2="67.2" y2="317.9" stroke="#FFD700" stroke-width="4" stroke-linecap="round"/><line x1="70.0" y1="249.9" x2="55.0" y2="249.9" stroke="#FFD700" stroke-width="4" stroke-linecap="round"/><line x1="83.1" y1="182.7" x2="69.2" y2="177.1" stroke="#FFD700" stroke-width="4" stroke-linecap="round"/><line x1="119.4" y1="126.1" x2="108.6" y2="115.8" stroke="#FFD700" stroke-width="4" stroke-linecap="round"/><line x1="182.5" y1="83.1" x2="176.9" y2="69.2" stroke="#FFD700" stroke-width="4" stroke-linecap="round"/><line x1="251.6" y1="70.0" x2="251.7" y2="55.0" stroke="#FFD700" stroke-width="4" stroke-linecap="round"/><line x1="324.7" y1="86.2" x2="330.9" y2="72.6" stroke="#FFD700" stroke-width="4" stroke-linecap="round"/><line x1="377.7" y1="123.1" x2="388.3" y2="112.5" stroke="#FFD700" stroke-width="4" stroke-linecap="round"/><line x1="416.4" y1="181.3" x2="430.2" y2="175.5" stroke="#FFD700" stroke-width="4" stroke-linecap="round"/><circle cx="250" cy="250" r="160" fill="#2e2200" stroke="#CC9900" stroke-width="2"/><circle cx="250" cy="250" r="120" fill="none" stroke="#AA7700" stroke-width="1" opacity="0.5"/><circle cx="250" cy="250" r="80" fill="none" stroke="#AA7700" stroke-width="1" opacity="0.3"/><line x1="186.2" y1="298.2" x2="154.3" y2="322.4" stroke="#FFD700" stroke-width="1.5" opacity="0.3"/><line x1="201.8" y1="186.2" x2="177.6" y2="154.3" stroke="#FFD700" stroke-width="1.5" opacity="0.3"/><line x1="313.8" y1="201.8" x2="345.7" y2="177.6" stroke="#FFD700" stroke-width="1.5" opacity="0.3"/><line x1="298.2" y1="313.8" x2="322.4" y2="345.7" stroke="#FFD700" stroke-width="1.5" opacity="0.3"/><circle cx="250" cy="250" r="50" fill="#2e2200" stroke="#FFD700" stroke-width="2"/><text x="250" y="242" text-anchor="middle" dominant-baseline="central" fill="#FFD700" font-family="'Courier New', monospace" font-weight="bold" font-size="20">#402</text><text x="250" y="268" text-anchor="middle" dominant-baseline="central" fill="#CC9900" font-family="'Courier New', monospace" font-size="12" opacity="0.7">LEGENDARY</text><text x="250" y="460" text-anchor="middle" fill="#FFD700" font-family="'Courier New', monospace" font-size="14" opacity="0.4">CHIPTAP</text></svg>