<svg xmlns="http://www.w3.org/2000/svg" viewBox="0 0 500 500" width="500" height="500"><rect width="500" height="500" fill="#0a1a3e" rx="20"/><rect x="210.7" y="320.7" width="14.2" height="14.2" fill="none" stroke="#3399FF" stroke-width="0.5" opacity="0.1" transform="rotate(45 217.8 327.8)"/><rect x="216.8" y="167.6" width="18.7" height="18.7" fill="none" stroke="#3399FF" stroke-width="0.5" opacity="0.1" transform="rotate(45 226.1 176.9)"/><rect x="162.8" y="185.2" width="19.3" height="19.3" fill="none" stroke="#3399FF" stroke-width="0.5" opacity="0.1" transform="rotate(45 172.5 194.8)"/><rect x="277.9" y="234.8" width="17.1" height="17.1" fill="none" stroke="#3399FF" stroke-width="0.5" opacity="0.1" transform="rotate(45 286.5 243.3)"/><rect x="331.6" y="155.3" width="11.0" height="11.0" fill="none" stroke="#3399FF" stroke-width="0.5" opacity="0.1" transform="rotate(45 337.1 160.7)"/><rect x="206.8" y="172.8" width="19.5" height="19.5" fill="none" stroke="#3399FF" stroke-width="0.5" opacity="0.1" transform="rotate(45 216.6 182.6)"/><rect x="177.4" y="146.2" width="14.5" height="14.5" fill="none" stroke="#3399FF" stroke-width="0.5" opacity="0.1" transform="rotate(45 184.6 153.4)"/><rect x="278.4" y="191.7" width="10.3" height="10.3" fill="none" stroke="#3399FF" stroke-width="0.5" opacity="0.1" transform="rotate(45 283.5 196.9)"/><circle cx="250" cy="250" r="180" fill="#3399FF" opacity="0.04"/><circle cx="250" cy="250" r="140" fill="#3399FF" opacity="0.03"/><circle cx="250" cy="250" r="190" fill="none" stroke="#2266CC" stroke-width="4" opacity="0.4"/><circle cx="250" cy="250" r="180" fill="none" stroke="#2266CC" stroke-width="2.5"/><line x1="430.0" y1="247.7" x2="445.0" y2="247.5" stroke="#3399FF" stroke-width="4" stroke-linecap="round"/><line x1="409.0" y1="334.5" x2="422.2" y2="341.5" stroke="#3399FF" stroke-width="4" stroke-linecap="round"/><line x1="335.7" y1="408.3" x2="342.8" y2="421.5" stroke="#3399FF" stroke-width="4" stroke-linecap="round"/><line x1="244.9" y1="429.9" x2="244.4" y2="444.9" stroke="#3399FF" stroke-width="4" stroke-linecap="round"/><line x1="155.6" y1="403.3" x2="147.7" y2="416.0" stroke="#3399FF" stroke-width="4" stroke-linecap="round"/><line x1="95.2" y1="341.9" x2="82.3" y2="349.5" stroke="#3399FF" stroke-width="4" stroke-linecap="round"/><line x1="70.0" y1="246.6" x2="55.0" y2="246.3" stroke="#3399FF" stroke-width="4" stroke-linecap="round"/><line x1="92.6" y1="162.8" x2="79.4" y2="155.5" stroke="#3399FF" stroke-width="4" stroke-linecap="round"/><line x1="153.6" y1="98.0" x2="145.5" y2="85.3" stroke="#3399FF" stroke-width="4" stroke-linecap="round"/><line x1="248.8" y1="70.0" x2="248.7" y2="55.0" stroke="#3399FF" stroke-width="4" stroke-linecap="round"/><line x1="333.8" y1="90.7" x2="340.8" y2="77.4" stroke="#3399FF" stroke-width="4" stroke-linecap="round"/><line x1="407.4" y1="162.7" x2="420.5" y2="155.4" stroke="#3399FF" stroke-width="4" stroke-linecap="round"/><circle cx="250" cy="250" r="160" fill="#0a1a3e" stroke="#2266CC" stroke-width="2"/><circle cx="250" cy="250" r="120" fill="none" stroke="#1144AA" stroke-width="1" opacity="0.5"/><circle cx="250" cy="250" r="80" fill="none" stroke="#1144AA" stroke-width="1" opacity="0.3"/><line x1="194.6" y1="307.7" x2="166.9" y2="336.6" stroke="#3399FF" stroke-width="1.5" opacity="0.3"/><line x1="192.3" y1="194.6" x2="163.4" y2="166.9" stroke="#3399FF" stroke-width="1.5" opacity="0.3"/><line x1="305.4" y1="192.3" x2="333.1" y2="163.4" stroke="#3399FF" stroke-width="1.5" opacity="0.3"/><line x1="307.7" y1="305.4" x2="336.6" y2="333.1" stroke="#3399FF" stroke-width="1.5" opacity="0.3"/><circle cx="250" cy="250" r="50" fill="#0a1a3e" stroke="#3399FF" stroke-width="2"/><text x="250" y="242" text-anchor="middle" dominant-baseline="central" fill="#3399FF" font-family="'Courier New', monospace" font-weight="bold" font-size="20">#202</text><text x="250" y="268" text-anchor="middle" dominant-baseline="central" fill="#2266CC" font-family="'Courier New', monospace" font-size="12" opacity="0.7">RARE</text><text x="250" y="460" text-anchor="middle" fill="#3399FF" font-family="'Courier New', monospace" font-size="14" opacity="0.4">CHIPTAP</text></svg>