<svg xmlns="http://www.w3.org/2000/svg" viewBox="0 0 500 500" width="500" height="500"><rect width="500" height="500" fill="#0a1a3e" rx="20"/><rect x="276.8" y="192.0" width="14.5" height="14.5" fill="none" stroke="#3399FF" stroke-width="0.5" opacity="0.1" transform="rotate(45 284.0 199.2)"/><rect x="316.9" y="193.5" width="12.3" height="12.3" fill="none" stroke="#3399FF" stroke-width="0.5" opacity="0.1" transform="rotate(45 323.0 199.7)"/><rect x="218.0" y="221.1" width="8.8" height="8.8" fill="none" stroke="#3399FF" stroke-width="0.5" opacity="0.1" transform="rotate(45 222.4 225.5)"/><rect x="221.5" y="154.8" width="17.3" height="17.3" fill="none" stroke="#3399FF" stroke-width="0.5" opacity="0.1" transform="rotate(45 230.1 163.5)"/><rect x="150.4" y="195.1" width="15.8" height="15.8" fill="none" stroke="#3399FF" stroke-width="0.5" opacity="0.1" transform="rotate(45 158.3 203.0)"/><rect x="144.3" y="271.8" width="16.0" height="16.0" fill="none" stroke="#3399FF" stroke-width="0.5" opacity="0.1" transform="rotate(45 152.3 279.8)"/><rect x="225.1" y="228.4" width="15.2" height="15.2" fill="none" stroke="#3399FF" stroke-width="0.5" opacity="0.1" transform="rotate(45 232.7 236.1)"/><rect x="157.3" y="337.8" width="17.8" height="17.8" fill="none" stroke="#3399FF" stroke-width="0.5" opacity="0.1" transform="rotate(45 166.2 346.7)"/><circle cx="250" cy="250" r="180" fill="#3399FF" opacity="0.04"/><circle cx="250" cy="250" r="140" fill="#3399FF" opacity="0.03"/><circle cx="250" cy="250" r="190" fill="none" stroke="#2266CC" stroke-width="4" opacity="0.4"/><circle cx="250" cy="250" r="180" fill="none" stroke="#2266CC" stroke-width="2.5"/><line x1="430.0" y1="251.0" x2="445.0" y2="251.1" stroke="#3399FF" stroke-width="4" stroke-linecap="round"/><line x1="402.3" y1="346.0" x2="414.9" y2="354.0" stroke="#3399FF" stroke-width="4" stroke-linecap="round"/><line x1="340.9" y1="405.3" x2="348.5" y2="418.3" stroke="#3399FF" stroke-width="4" stroke-linecap="round"/><line x1="254.3" y1="429.9" x2="254.7" y2="444.9" stroke="#3399FF" stroke-width="4" stroke-linecap="round"/><line x1="166.0" y1="409.2" x2="159.0" y2="422.5" stroke="#3399FF" stroke-width="4" stroke-linecap="round"/><line x1="92.4" y1="336.9" x2="79.2" y2="344.1" stroke="#3399FF" stroke-width="4" stroke-linecap="round"/><line x1="70.1" y1="244.3" x2="55.1" y2="243.9" stroke="#3399FF" stroke-width="4" stroke-linecap="round"/><line x1="92.9" y1="162.1" x2="79.8" y2="154.8" stroke="#3399FF" stroke-width="4" stroke-linecap="round"/><line x1="160.9" y1="93.6" x2="153.5" y2="80.6" stroke="#3399FF" stroke-width="4" stroke-linecap="round"/><line x1="245.7" y1="70.1" x2="245.3" y2="55.1" stroke="#3399FF" stroke-width="4" stroke-linecap="round"/><line x1="336.1" y1="91.9" x2="343.2" y2="78.7" stroke="#3399FF" stroke-width="4" stroke-linecap="round"/><line x1="408.0" y1="163.8" x2="421.2" y2="156.6" stroke="#3399FF" stroke-width="4" stroke-linecap="round"/><circle cx="250" cy="250" r="160" fill="#0a1a3e" stroke="#2266CC" stroke-width="2"/><circle cx="250" cy="250" r="120" fill="none" stroke="#1144AA" stroke-width="1" opacity="0.5"/><circle cx="250" cy="250" r="80" fill="none" stroke="#1144AA" stroke-width="1" opacity="0.3"/><line x1="208.9" y1="181.4" x2="188.3" y2="147.1" stroke="#3399FF" stroke-width="1.5" opacity="0.3"/><line x1="318.6" y1="208.9" x2="352.9" y2="188.3" stroke="#3399FF" stroke-width="1.5" opacity="0.3"/><line x1="291.1" y1="318.6" x2="311.7" y2="352.9" stroke="#3399FF" stroke-width="1.5" opacity="0.3"/><line x1="181.4" y1="291.1" x2="147.1" y2="311.7" stroke="#3399FF" stroke-width="1.5" opacity="0.3"/><circle cx="250" cy="250" r="50" fill="#0a1a3e" stroke="#3399FF" stroke-width="2"/><text x="250" y="242" text-anchor="middle" dominant-baseline="central" fill="#3399FF" font-family="'Courier New', monospace" font-weight="bold" font-size="20">#205</text><text x="250" y="268" text-anchor="middle" dominant-baseline="central" fill="#2266CC" font-family="'Courier New', monospace" font-size="12" opacity="0.7">RARE</text><text x="250" y="460" text-anchor="middle" fill="#3399FF" font-family="'Courier New', monospace" font-size="14" opacity="0.4">CHIPTAP</text></svg>