<svg xmlns="http://www.w3.org/2000/svg" viewBox="0 0 500 500" width="500" height="500"><rect width="500" height="500" fill="#2e2200" rx="20"/><line x1="250" y1="250" x2="450.0" y2="250.0" stroke="#FFD700" stroke-width="1" opacity="0.05"/><line x1="250" y1="250" x2="423.2" y2="350.0" stroke="#FFD700" stroke-width="1" opacity="0.05"/><line x1="250" y1="250" x2="350.0" y2="423.2" stroke="#FFD700" stroke-width="1" opacity="0.05"/><line x1="250" y1="250" x2="250.0" y2="450.0" stroke="#FFD700" stroke-width="1" opacity="0.05"/><line x1="250" y1="250" x2="150.0" y2="423.2" stroke="#FFD700" stroke-width="1" opacity="0.05"/><line x1="250" y1="250" x2="76.8" y2="350.0" stroke="#FFD700" stroke-width="1" opacity="0.05"/><line x1="250" y1="250" x2="50.0" y2="250.0" stroke="#FFD700" stroke-width="1" opacity="0.05"/><line x1="250" y1="250" x2="76.8" y2="150.0" stroke="#FFD700" stroke-width="1" opacity="0.05"/><line x1="250" y1="250" x2="150.0" y2="76.8" stroke="#FFD700" stroke-width="1" opacity="0.05"/><line x1="250" y1="250" x2="250.0" y2="50.0" stroke="#FFD700" stroke-width="1" opacity="0.05"/><line x1="250" y1="250" x2="350.0" y2="76.8" stroke="#FFD700" stroke-width="1" opacity="0.05"/><line x1="250" y1="250" x2="423.2" y2="150.0" stroke="#FFD700" stroke-width="1" opacity="0.05"/><circle cx="250" cy="250" r="180" fill="#FFD700" opacity="0.04"/><circle cx="250" cy="250" r="140" fill="#FFD700" opacity="0.03"/><circle cx="250" cy="250" r="190" fill="none" stroke="#CC9900" stroke-width="4" opacity="0.4"/><circle cx="250" cy="250" r="180" fill="none" stroke="#CC9900" stroke-width="2.5"/><line x1="430.0" y1="250.7" x2="445.0" y2="250.8" stroke="#FFD700" stroke-width="4" stroke-linecap="round"/><line x1="418.0" y1="314.5" x2="432.1" y2="319.9" stroke="#FFD700" stroke-width="4" stroke-linecap="round"/><line x1="382.5" y1="371.8" x2="393.6" y2="382.0" stroke="#FFD700" stroke-width="4" stroke-linecap="round"/><line x1="324.4" y1="413.9" x2="330.6" y2="427.6" stroke="#FFD700" stroke-width="4" stroke-linecap="round"/><line x1="257.7" y1="429.8" x2="258.3" y2="444.8" stroke="#FFD700" stroke-width="4" stroke-linecap="round"/><line x1="185.2" y1="417.9" x2="179.8" y2="431.9" stroke="#FFD700" stroke-width="4" stroke-linecap="round"/><line x1="123.1" y1="377.6" x2="112.5" y2="388.3" stroke="#FFD700" stroke-width="4" stroke-linecap="round"/><line x1="81.0" y1="312.0" x2="66.9" y2="317.1" stroke="#FFD700" stroke-width="4" stroke-linecap="round"/><line x1="70.1" y1="257.1" x2="55.2" y2="257.7" stroke="#FFD700" stroke-width="4" stroke-linecap="round"/><line x1="81.9" y1="185.5" x2="67.9" y2="180.2" stroke="#FFD700" stroke-width="4" stroke-linecap="round"/><line x1="121.2" y1="124.3" x2="110.5" y2="113.8" stroke="#FFD700" stroke-width="4" stroke-linecap="round"/><line x1="183.7" y1="82.6" x2="178.2" y2="68.7" stroke="#FFD700" stroke-width="4" stroke-linecap="round"/><line x1="256.2" y1="70.1" x2="256.7" y2="55.1" stroke="#FFD700" stroke-width="4" stroke-linecap="round"/><line x1="315.0" y1="82.2" x2="320.5" y2="68.2" stroke="#FFD700" stroke-width="4" stroke-linecap="round"/><line x1="381.5" y1="127.1" x2="392.5" y2="116.9" stroke="#FFD700" stroke-width="4" stroke-linecap="round"/><line x1="416.5" y1="181.6" x2="430.4" y2="175.9" stroke="#FFD700" stroke-width="4" stroke-linecap="round"/><circle cx="250" cy="250" r="160" fill="#2e2200" stroke="#CC9900" stroke-width="2"/><circle cx="250" cy="250" r="120" fill="none" stroke="#AA7700" stroke-width="1" opacity="0.5"/><circle cx="250" cy="250" r="80" fill="none" stroke="#AA7700" stroke-width="1" opacity="0.3"/><line x1="308.9" y1="195.8" x2="338.3" y2="168.7" stroke="#FFD700" stroke-width="1.5" opacity="0.3"/><line x1="304.2" y1="308.9" x2="331.3" y2="338.3" stroke="#FFD700" stroke-width="1.5" opacity="0.3"/><line x1="191.1" y1="304.2" x2="161.7" y2="331.3" stroke="#FFD700" stroke-width="1.5" opacity="0.3"/><line x1="195.8" y1="191.1" x2="168.7" y2="161.7" stroke="#FFD700" stroke-width="1.5" opacity="0.3"/><circle cx="250" cy="250" r="50" fill="#2e2200" stroke="#FFD700" stroke-width="2"/><text x="250" y="242" text-anchor="middle" dominant-baseline="central" fill="#FFD700" font-family="'Courier New', monospace" font-weight="bold" font-size="20">#405</text><text x="250" y="268" text-anchor="middle" dominant-baseline="central" fill="#CC9900" font-family="'Courier New', monospace" font-size="12" opacity="0.7">LEGENDARY</text><text x="250" y="460" text-anchor="middle" fill="#FFD700" font-family="'Courier New', monospace" font-size="14" opacity="0.4">CHIPTAP</text></svg>