<svg xmlns="http://www.w3.org/2000/svg" viewBox="0 0 500 500" width="500" height="500"><rect width="500" height="500" fill="#1a1a2e" rx="20"/><circle cx="254.9" cy="355.0" r="4.3" fill="#aaaaaa" opacity="0.08"/><circle cx="213.4" cy="198.7" r="2.4" fill="#aaaaaa" opacity="0.08"/><circle cx="256.8" cy="260.8" r="4.0" fill="#aaaaaa" opacity="0.08"/><circle cx="361.7" cy="118.4" r="2.7" fill="#aaaaaa" opacity="0.08"/><circle cx="275.0" cy="391.9" r="2.3" fill="#aaaaaa" opacity="0.08"/><circle cx="305.5" cy="390.2" r="2.2" fill="#aaaaaa" opacity="0.08"/><circle cx="124.2" cy="303.8" r="3.9" fill="#aaaaaa" opacity="0.08"/><circle cx="273.2" cy="230.7" r="4.5" fill="#aaaaaa" opacity="0.08"/><circle cx="219.6" cy="338.7" r="4.6" fill="#aaaaaa" opacity="0.08"/><circle cx="345.7" cy="280.5" r="4.3" fill="#aaaaaa" opacity="0.08"/><circle cx="350.7" cy="371.1" r="2.2" fill="#aaaaaa" opacity="0.08"/><circle cx="383.7" cy="185.1" r="3.9" fill="#aaaaaa" opacity="0.08"/><circle cx="250" cy="250" r="190" fill="none" stroke="#888888" stroke-width="4" opacity="0.4"/><circle cx="250" cy="250" r="180" fill="none" stroke="#888888" stroke-width="2.5"/><line x1="430.0" y1="246.9" x2="445.0" y2="246.7" stroke="#aaaaaa" stroke-width="4" stroke-linecap="round"/><line x1="376.6" y1="378.0" x2="387.1" y2="388.6" stroke="#aaaaaa" stroke-width="4" stroke-linecap="round"/><line x1="257.5" y1="429.8" x2="258.1" y2="444.8" stroke="#aaaaaa" stroke-width="4" stroke-linecap="round"/><line x1="119.4" y1="373.9" x2="108.5" y2="384.2" stroke="#aaaaaa" stroke-width="4" stroke-linecap="round"/><line x1="70.1" y1="255.8" x2="55.1" y2="256.3" stroke="#aaaaaa" stroke-width="4" stroke-linecap="round"/><line x1="125.5" y1="120.0" x2="115.1" y2="109.2" stroke="#aaaaaa" stroke-width="4" stroke-linecap="round"/><line x1="253.5" y1="70.0" x2="253.8" y2="55.0" stroke="#aaaaaa" stroke-width="4" stroke-linecap="round"/><line x1="379.0" y1="124.5" x2="389.7" y2="114.0" stroke="#aaaaaa" stroke-width="4" stroke-linecap="round"/><circle cx="250" cy="250" r="160" fill="#1a1a2e" stroke="#888888" stroke-width="2"/><circle cx="250" cy="250" r="120" fill="none" stroke="#666666" stroke-width="1" opacity="0.5"/><circle cx="250" cy="250" r="80" fill="none" stroke="#666666" stroke-width="1" opacity="0.3"/><line x1="329.2" y1="261.5" x2="368.8" y2="267.2" stroke="#aaaaaa" stroke-width="1.5" opacity="0.3"/><line x1="238.5" y1="329.2" x2="232.8" y2="368.8" stroke="#aaaaaa" stroke-width="1.5" opacity="0.3"/><line x1="170.8" y1="238.5" x2="131.2" y2="232.8" stroke="#aaaaaa" stroke-width="1.5" opacity="0.3"/><line x1="261.5" y1="170.8" x2="267.2" y2="131.2" stroke="#aaaaaa" stroke-width="1.5" opacity="0.3"/><circle cx="250" cy="250" r="50" fill="#1a1a2e" stroke="#aaaaaa" stroke-width="2"/><text x="250" y="242" text-anchor="middle" dominant-baseline="central" fill="#aaaaaa" font-family="'Courier New', monospace" font-weight="bold" font-size="20">#1</text><text x="250" y="268" text-anchor="middle" dominant-baseline="central" fill="#888888" font-family="'Courier New', monospace" font-size="12" opacity="0.7">COMMON</text><text x="250" y="460" text-anchor="middle" fill="#aaaaaa" font-family="'Courier New', monospace" font-size="14" opacity="0.4">CHIPTAP</text></svg>