<svg xmlns="http://www.w3.org/2000/svg" viewBox="0 0 500 500" width="500" height="500"><rect width="500" height="500" fill="#2e2200" rx="20"/><line x1="250" y1="250" x2="450.0" y2="250.0" stroke="#FFD700" stroke-width="1" opacity="0.05"/><line x1="250" y1="250" x2="423.2" y2="350.0" stroke="#FFD700" stroke-width="1" opacity="0.05"/><line x1="250" y1="250" x2="350.0" y2="423.2" stroke="#FFD700" stroke-width="1" opacity="0.05"/><line x1="250" y1="250" x2="250.0" y2="450.0" stroke="#FFD700" stroke-width="1" opacity="0.05"/><line x1="250" y1="250" x2="150.0" y2="423.2" stroke="#FFD700" stroke-width="1" opacity="0.05"/><line x1="250" y1="250" x2="76.8" y2="350.0" stroke="#FFD700" stroke-width="1" opacity="0.05"/><line x1="250" y1="250" x2="50.0" y2="250.0" stroke="#FFD700" stroke-width="1" opacity="0.05"/><line x1="250" y1="250" x2="76.8" y2="150.0" stroke="#FFD700" stroke-width="1" opacity="0.05"/><line x1="250" y1="250" x2="150.0" y2="76.8" stroke="#FFD700" stroke-width="1" opacity="0.05"/><line x1="250" y1="250" x2="250.0" y2="50.0" stroke="#FFD700" stroke-width="1" opacity="0.05"/><line x1="250" y1="250" x2="350.0" y2="76.8" stroke="#FFD700" stroke-width="1" opacity="0.05"/><line x1="250" y1="250" x2="423.2" y2="150.0" stroke="#FFD700" stroke-width="1" opacity="0.05"/><circle cx="250" cy="250" r="180" fill="#FFD700" opacity="0.04"/><circle cx="250" cy="250" r="140" fill="#FFD700" opacity="0.03"/><circle cx="250" cy="250" r="190" fill="none" stroke="#CC9900" stroke-width="4" opacity="0.4"/><circle cx="250" cy="250" r="180" fill="none" stroke="#CC9900" stroke-width="2.5"/><line x1="430.0" y1="249.6" x2="445.0" y2="249.6" stroke="#FFD700" stroke-width="4" stroke-linecap="round"/><line x1="413.7" y1="324.9" x2="427.3" y2="331.1" stroke="#FFD700" stroke-width="4" stroke-linecap="round"/><line x1="373.8" y1="380.7" x2="384.1" y2="391.6" stroke="#FFD700" stroke-width="4" stroke-linecap="round"/><line x1="311.8" y1="419.1" x2="316.9" y2="433.2" stroke="#FFD700" stroke-width="4" stroke-linecap="round"/><line x1="253.7" y1="430.0" x2="254.0" y2="445.0" stroke="#FFD700" stroke-width="4" stroke-linecap="round"/><line x1="187.0" y1="418.6" x2="181.7" y2="432.7" stroke="#FFD700" stroke-width="4" stroke-linecap="round"/><line x1="127.4" y1="381.8" x2="117.2" y2="392.8" stroke="#FFD700" stroke-width="4" stroke-linecap="round"/><line x1="81.1" y1="312.2" x2="67.0" y2="317.4" stroke="#FFD700" stroke-width="4" stroke-linecap="round"/><line x1="70.0" y1="249.5" x2="55.0" y2="249.4" stroke="#FFD700" stroke-width="4" stroke-linecap="round"/><line x1="82.3" y1="184.6" x2="68.3" y2="179.1" stroke="#FFD700" stroke-width="4" stroke-linecap="round"/><line x1="120.6" y1="124.9" x2="109.8" y2="114.4" stroke="#FFD700" stroke-width="4" stroke-linecap="round"/><line x1="183.3" y1="82.8" x2="177.8" y2="68.9" stroke="#FFD700" stroke-width="4" stroke-linecap="round"/><line x1="244.2" y1="70.1" x2="243.7" y2="55.1" stroke="#FFD700" stroke-width="4" stroke-linecap="round"/><line x1="323.1" y1="85.5" x2="329.2" y2="71.8" stroke="#FFD700" stroke-width="4" stroke-linecap="round"/><line x1="380.3" y1="125.8" x2="391.1" y2="115.4" stroke="#FFD700" stroke-width="4" stroke-linecap="round"/><line x1="416.5" y1="181.5" x2="430.3" y2="175.8" stroke="#FFD700" stroke-width="4" stroke-linecap="round"/><circle cx="250" cy="250" r="160" fill="#2e2200" stroke="#CC9900" stroke-width="2"/><circle cx="250" cy="250" r="120" fill="none" stroke="#AA7700" stroke-width="1" opacity="0.5"/><circle cx="250" cy="250" r="80" fill="none" stroke="#AA7700" stroke-width="1" opacity="0.3"/><line x1="325.5" y1="276.3" x2="363.3" y2="289.5" stroke="#FFD700" stroke-width="1.5" opacity="0.3"/><line x1="223.7" y1="325.5" x2="210.5" y2="363.3" stroke="#FFD700" stroke-width="1.5" opacity="0.3"/><line x1="174.5" y1="223.7" x2="136.7" y2="210.5" stroke="#FFD700" stroke-width="1.5" opacity="0.3"/><line x1="276.3" y1="174.5" x2="289.5" y2="136.7" stroke="#FFD700" stroke-width="1.5" opacity="0.3"/><circle cx="250" cy="250" r="50" fill="#2e2200" stroke="#FFD700" stroke-width="2"/><text x="250" y="242" text-anchor="middle" dominant-baseline="central" fill="#FFD700" font-family="'Courier New', monospace" font-weight="bold" font-size="20">#404</text><text x="250" y="268" text-anchor="middle" dominant-baseline="central" fill="#CC9900" font-family="'Courier New', monospace" font-size="12" opacity="0.7">LEGENDARY</text><text x="250" y="460" text-anchor="middle" fill="#FFD700" font-family="'Courier New', monospace" font-size="14" opacity="0.4">CHIPTAP</text></svg>