<svg xmlns="http://www.w3.org/2000/svg" viewBox="0 0 500 500" width="500" height="500"><rect width="500" height="500" fill="#0a2e0a" rx="20"/><line x1="80" y1="80" x2="80" y2="420" stroke="#00FF00" stroke-width="0.5" opacity="0.06"/><line x1="80" y1="80" x2="420" y2="80" stroke="#00FF00" stroke-width="0.5" opacity="0.06"/><line x1="120" y1="80" x2="120" y2="420" stroke="#00FF00" stroke-width="0.5" opacity="0.06"/><line x1="80" y1="120" x2="420" y2="120" stroke="#00FF00" stroke-width="0.5" opacity="0.06"/><line x1="160" y1="80" x2="160" y2="420" stroke="#00FF00" stroke-width="0.5" opacity="0.06"/><line x1="80" y1="160" x2="420" y2="160" stroke="#00FF00" stroke-width="0.5" opacity="0.06"/><line x1="200" y1="80" x2="200" y2="420" stroke="#00FF00" stroke-width="0.5" opacity="0.06"/><line x1="80" y1="200" x2="420" y2="200" stroke="#00FF00" stroke-width="0.5" opacity="0.06"/><line x1="240" y1="80" x2="240" y2="420" stroke="#00FF00" stroke-width="0.5" opacity="0.06"/><line x1="80" y1="240" x2="420" y2="240" stroke="#00FF00" stroke-width="0.5" opacity="0.06"/><line x1="280" y1="80" x2="280" y2="420" stroke="#00FF00" stroke-width="0.5" opacity="0.06"/><line x1="80" y1="280" x2="420" y2="280" stroke="#00FF00" stroke-width="0.5" opacity="0.06"/><line x1="320" y1="80" x2="320" y2="420" stroke="#00FF00" stroke-width="0.5" opacity="0.06"/><line x1="80" y1="320" x2="420" y2="320" stroke="#00FF00" stroke-width="0.5" opacity="0.06"/><line x1="360" y1="80" x2="360" y2="420" stroke="#00FF00" stroke-width="0.5" opacity="0.06"/><line x1="80" y1="360" x2="420" y2="360" stroke="#00FF00" stroke-width="0.5" opacity="0.06"/><line x1="400" y1="80" x2="400" y2="420" stroke="#00FF00" stroke-width="0.5" opacity="0.06"/><line x1="80" y1="400" x2="420" y2="400" stroke="#00FF00" stroke-width="0.5" opacity="0.06"/><circle cx="250" cy="250" r="190" fill="none" stroke="#00CC00" stroke-width="4" opacity="0.4"/><circle cx="250" cy="250" r="180" fill="none" stroke="#00CC00" stroke-width="2.5"/><line x1="429.8" y1="242.2" x2="444.8" y2="241.5" stroke="#00FF00" stroke-width="4" stroke-linecap="round"/><line x1="399.8" y1="349.8" x2="412.3" y2="358.2" stroke="#00FF00" stroke-width="4" stroke-linecap="round"/><line x1="299.1" y1="423.2" x2="303.2" y2="437.6" stroke="#00FF00" stroke-width="4" stroke-linecap="round"/><line x1="199.7" y1="422.8" x2="195.5" y2="437.2" stroke="#00FF00" stroke-width="4" stroke-linecap="round"/><line x1="105.8" y1="357.8" x2="93.8" y2="366.8" stroke="#00FF00" stroke-width="4" stroke-linecap="round"/><line x1="70.0" y1="252.2" x2="55.0" y2="252.4" stroke="#00FF00" stroke-width="4" stroke-linecap="round"/><line x1="101.4" y1="148.4" x2="89.1" y2="139.9" stroke="#00FF00" stroke-width="4" stroke-linecap="round"/><line x1="187.2" y1="81.3" x2="182.0" y2="67.3" stroke="#00FF00" stroke-width="4" stroke-linecap="round"/><line x1="302.8" y1="77.9" x2="307.2" y2="63.6" stroke="#00FF00" stroke-width="4" stroke-linecap="round"/><line x1="393.8" y1="141.7" x2="405.8" y2="132.7" stroke="#00FF00" stroke-width="4" stroke-linecap="round"/><circle cx="250" cy="250" r="160" fill="#0a2e0a" stroke="#00CC00" stroke-width="2"/><circle cx="250" cy="250" r="120" fill="none" stroke="#008800" stroke-width="1" opacity="0.5"/><circle cx="250" cy="250" r="80" fill="none" stroke="#008800" stroke-width="1" opacity="0.3"/><line x1="181.1" y1="209.4" x2="146.6" y2="189.1" stroke="#00FF00" stroke-width="1.5" opacity="0.3"/><line x1="290.6" y1="181.1" x2="310.9" y2="146.6" stroke="#00FF00" stroke-width="1.5" opacity="0.3"/><line x1="318.9" y1="290.6" x2="353.4" y2="310.9" stroke="#00FF00" stroke-width="1.5" opacity="0.3"/><line x1="209.4" y1="318.9" x2="189.1" y2="353.4" stroke="#00FF00" stroke-width="1.5" opacity="0.3"/><circle cx="250" cy="250" r="50" fill="#0a2e0a" stroke="#00FF00" stroke-width="2"/><text x="250" y="242" text-anchor="middle" dominant-baseline="central" fill="#00FF00" font-family="'Courier New', monospace" font-weight="bold" font-size="20">#104</text><text x="250" y="268" text-anchor="middle" dominant-baseline="central" fill="#00CC00" font-family="'Courier New', monospace" font-size="12" opacity="0.7">UNCOMMON</text><text x="250" y="460" text-anchor="middle" fill="#00FF00" font-family="'Courier New', monospace" font-size="14" opacity="0.4">CHIPTAP</text></svg>