<svg xmlns="http://www.w3.org/2000/svg" viewBox="0 0 500 500" width="500" height="500"><rect width="500" height="500" fill="#2e2200" rx="20"/><line x1="250" y1="250" x2="450.0" y2="250.0" stroke="#FFD700" stroke-width="1" opacity="0.05"/><line x1="250" y1="250" x2="423.2" y2="350.0" stroke="#FFD700" stroke-width="1" opacity="0.05"/><line x1="250" y1="250" x2="350.0" y2="423.2" stroke="#FFD700" stroke-width="1" opacity="0.05"/><line x1="250" y1="250" x2="250.0" y2="450.0" stroke="#FFD700" stroke-width="1" opacity="0.05"/><line x1="250" y1="250" x2="150.0" y2="423.2" stroke="#FFD700" stroke-width="1" opacity="0.05"/><line x1="250" y1="250" x2="76.8" y2="350.0" stroke="#FFD700" stroke-width="1" opacity="0.05"/><line x1="250" y1="250" x2="50.0" y2="250.0" stroke="#FFD700" stroke-width="1" opacity="0.05"/><line x1="250" y1="250" x2="76.8" y2="150.0" stroke="#FFD700" stroke-width="1" opacity="0.05"/><line x1="250" y1="250" x2="150.0" y2="76.8" stroke="#FFD700" stroke-width="1" opacity="0.05"/><line x1="250" y1="250" x2="250.0" y2="50.0" stroke="#FFD700" stroke-width="1" opacity="0.05"/><line x1="250" y1="250" x2="350.0" y2="76.8" stroke="#FFD700" stroke-width="1" opacity="0.05"/><line x1="250" y1="250" x2="423.2" y2="150.0" stroke="#FFD700" stroke-width="1" opacity="0.05"/><circle cx="250" cy="250" r="180" fill="#FFD700" opacity="0.04"/><circle cx="250" cy="250" r="140" fill="#FFD700" opacity="0.03"/><circle cx="250" cy="250" r="190" fill="none" stroke="#CC9900" stroke-width="4" opacity="0.4"/><circle cx="250" cy="250" r="180" fill="none" stroke="#CC9900" stroke-width="2.5"/><line x1="430.0" y1="246.4" x2="445.0" y2="246.1" stroke="#FFD700" stroke-width="4" stroke-linecap="round"/><line x1="418.8" y1="312.5" x2="432.8" y2="317.8" stroke="#FFD700" stroke-width="4" stroke-linecap="round"/><line x1="380.6" y1="373.9" x2="391.5" y2="384.2" stroke="#FFD700" stroke-width="4" stroke-linecap="round"/><line x1="317.6" y1="416.8" x2="323.2" y2="430.7" stroke="#FFD700" stroke-width="4" stroke-linecap="round"/><line x1="257.4" y1="429.8" x2="258.0" y2="444.8" stroke="#FFD700" stroke-width="4" stroke-linecap="round"/><line x1="177.8" y1="414.9" x2="171.7" y2="428.6" stroke="#FFD700" stroke-width="4" stroke-linecap="round"/><line x1="117.9" y1="372.3" x2="106.9" y2="382.5" stroke="#FFD700" stroke-width="4" stroke-linecap="round"/><line x1="81.3" y1="312.9" x2="67.3" y2="318.1" stroke="#FFD700" stroke-width="4" stroke-linecap="round"/><line x1="70.2" y1="242.3" x2="55.2" y2="241.7" stroke="#FFD700" stroke-width="4" stroke-linecap="round"/><line x1="83.4" y1="181.7" x2="69.6" y2="176.0" stroke="#FFD700" stroke-width="4" stroke-linecap="round"/><line x1="118.9" y1="126.7" x2="107.9" y2="116.4" stroke="#FFD700" stroke-width="4" stroke-linecap="round"/><line x1="182.1" y1="83.3" x2="176.5" y2="69.4" stroke="#FFD700" stroke-width="4" stroke-linecap="round"/><line x1="255.3" y1="70.1" x2="255.7" y2="55.1" stroke="#FFD700" stroke-width="4" stroke-linecap="round"/><line x1="318.3" y1="83.5" x2="324.0" y2="69.6" stroke="#FFD700" stroke-width="4" stroke-linecap="round"/><line x1="376.3" y1="121.8" x2="386.9" y2="111.1" stroke="#FFD700" stroke-width="4" stroke-linecap="round"/><line x1="416.3" y1="181.1" x2="430.2" y2="175.4" stroke="#FFD700" stroke-width="4" stroke-linecap="round"/><circle cx="250" cy="250" r="160" fill="#2e2200" stroke="#CC9900" stroke-width="2"/><circle cx="250" cy="250" r="120" fill="none" stroke="#AA7700" stroke-width="1" opacity="0.5"/><circle cx="250" cy="250" r="80" fill="none" stroke="#AA7700" stroke-width="1" opacity="0.3"/><line x1="177.4" y1="216.5" x2="141.0" y2="199.8" stroke="#FFD700" stroke-width="1.5" opacity="0.3"/><line x1="283.5" y1="177.4" x2="300.2" y2="141.0" stroke="#FFD700" stroke-width="1.5" opacity="0.3"/><line x1="322.6" y1="283.5" x2="359.0" y2="300.2" stroke="#FFD700" stroke-width="1.5" opacity="0.3"/><line x1="216.5" y1="322.6" x2="199.8" y2="359.0" stroke="#FFD700" stroke-width="1.5" opacity="0.3"/><circle cx="250" cy="250" r="50" fill="#2e2200" stroke="#FFD700" stroke-width="2"/><text x="250" y="242" text-anchor="middle" dominant-baseline="central" fill="#FFD700" font-family="'Courier New', monospace" font-weight="bold" font-size="20">#401</text><text x="250" y="268" text-anchor="middle" dominant-baseline="central" fill="#CC9900" font-family="'Courier New', monospace" font-size="12" opacity="0.7">LEGENDARY</text><text x="250" y="460" text-anchor="middle" fill="#FFD700" font-family="'Courier New', monospace" font-size="14" opacity="0.4">CHIPTAP</text></svg>