<svg xmlns="http://www.w3.org/2000/svg" viewBox="0 0 500 500" width="500" height="500"><rect width="500" height="500" fill="#0a2e0a" rx="20"/><line x1="80" y1="80" x2="80" y2="420" stroke="#00FF00" stroke-width="0.5" opacity="0.06"/><line x1="80" y1="80" x2="420" y2="80" stroke="#00FF00" stroke-width="0.5" opacity="0.06"/><line x1="120" y1="80" x2="120" y2="420" stroke="#00FF00" stroke-width="0.5" opacity="0.06"/><line x1="80" y1="120" x2="420" y2="120" stroke="#00FF00" stroke-width="0.5" opacity="0.06"/><line x1="160" y1="80" x2="160" y2="420" stroke="#00FF00" stroke-width="0.5" opacity="0.06"/><line x1="80" y1="160" x2="420" y2="160" stroke="#00FF00" stroke-width="0.5" opacity="0.06"/><line x1="200" y1="80" x2="200" y2="420" stroke="#00FF00" stroke-width="0.5" opacity="0.06"/><line x1="80" y1="200" x2="420" y2="200" stroke="#00FF00" stroke-width="0.5" opacity="0.06"/><line x1="240" y1="80" x2="240" y2="420" stroke="#00FF00" stroke-width="0.5" opacity="0.06"/><line x1="80" y1="240" x2="420" y2="240" stroke="#00FF00" stroke-width="0.5" opacity="0.06"/><line x1="280" y1="80" x2="280" y2="420" stroke="#00FF00" stroke-width="0.5" opacity="0.06"/><line x1="80" y1="280" x2="420" y2="280" stroke="#00FF00" stroke-width="0.5" opacity="0.06"/><line x1="320" y1="80" x2="320" y2="420" stroke="#00FF00" stroke-width="0.5" opacity="0.06"/><line x1="80" y1="320" x2="420" y2="320" stroke="#00FF00" stroke-width="0.5" opacity="0.06"/><line x1="360" y1="80" x2="360" y2="420" stroke="#00FF00" stroke-width="0.5" opacity="0.06"/><line x1="80" y1="360" x2="420" y2="360" stroke="#00FF00" stroke-width="0.5" opacity="0.06"/><line x1="400" y1="80" x2="400" y2="420" stroke="#00FF00" stroke-width="0.5" opacity="0.06"/><line x1="80" y1="400" x2="420" y2="400" stroke="#00FF00" stroke-width="0.5" opacity="0.06"/><circle cx="250" cy="250" r="190" fill="none" stroke="#00CC00" stroke-width="4" opacity="0.4"/><circle cx="250" cy="250" r="180" fill="none" stroke="#00CC00" stroke-width="2.5"/><line x1="429.9" y1="243.3" x2="444.9" y2="242.7" stroke="#00FF00" stroke-width="4" stroke-linecap="round"/><line x1="397.3" y1="353.5" x2="409.5" y2="362.1" stroke="#00FF00" stroke-width="4" stroke-linecap="round"/><line x1="311.0" y1="419.3" x2="316.1" y2="433.5" stroke="#00FF00" stroke-width="4" stroke-linecap="round"/><line x1="197.7" y1="422.2" x2="193.3" y2="436.6" stroke="#00FF00" stroke-width="4" stroke-linecap="round"/><line x1="108.3" y1="360.9" x2="96.4" y2="370.2" stroke="#00FF00" stroke-width="4" stroke-linecap="round"/><line x1="70.0" y1="250.3" x2="55.0" y2="250.3" stroke="#00FF00" stroke-width="4" stroke-linecap="round"/><line x1="104.9" y1="143.5" x2="92.8" y2="134.6" stroke="#00FF00" stroke-width="4" stroke-linecap="round"/><line x1="187.4" y1="81.2" x2="182.2" y2="67.2" stroke="#00FF00" stroke-width="4" stroke-linecap="round"/><line x1="310.5" y1="80.5" x2="315.5" y2="66.3" stroke="#00FF00" stroke-width="4" stroke-linecap="round"/><line x1="393.2" y1="140.9" x2="405.1" y2="131.8" stroke="#00FF00" stroke-width="4" stroke-linecap="round"/><circle cx="250" cy="250" r="160" fill="#0a2e0a" stroke="#00CC00" stroke-width="2"/><circle cx="250" cy="250" r="120" fill="none" stroke="#008800" stroke-width="1" opacity="0.5"/><circle cx="250" cy="250" r="80" fill="none" stroke="#008800" stroke-width="1" opacity="0.3"/><line x1="198.3" y1="189.0" x2="172.4" y2="158.4" stroke="#00FF00" stroke-width="1.5" opacity="0.3"/><line x1="311.0" y1="198.3" x2="341.6" y2="172.4" stroke="#00FF00" stroke-width="1.5" opacity="0.3"/><line x1="301.7" y1="311.0" x2="327.6" y2="341.6" stroke="#00FF00" stroke-width="1.5" opacity="0.3"/><line x1="189.0" y1="301.7" x2="158.4" y2="327.6" stroke="#00FF00" stroke-width="1.5" opacity="0.3"/><circle cx="250" cy="250" r="50" fill="#0a2e0a" stroke="#00FF00" stroke-width="2"/><text x="250" y="242" text-anchor="middle" dominant-baseline="central" fill="#00FF00" font-family="'Courier New', monospace" font-weight="bold" font-size="20">#105</text><text x="250" y="268" text-anchor="middle" dominant-baseline="central" fill="#00CC00" font-family="'Courier New', monospace" font-size="12" opacity="0.7">UNCOMMON</text><text x="250" y="460" text-anchor="middle" fill="#00FF00" font-family="'Courier New', monospace" font-size="14" opacity="0.4">CHIPTAP</text></svg>