<svg xmlns="http://www.w3.org/2000/svg" viewBox="0 0 500 500" width="500" height="500"><rect width="500" height="500" fill="#1a1a2e" rx="20"/><circle cx="235.3" cy="371.1" r="4.4" fill="#aaaaaa" opacity="0.08"/><circle cx="142.6" cy="331.8" r="2.7" fill="#aaaaaa" opacity="0.08"/><circle cx="259.3" cy="209.2" r="2.2" fill="#aaaaaa" opacity="0.08"/><circle cx="208.2" cy="243.4" r="4.9" fill="#aaaaaa" opacity="0.08"/><circle cx="287.4" cy="263.7" r="4.9" fill="#aaaaaa" opacity="0.08"/><circle cx="207.3" cy="300.8" r="2.4" fill="#aaaaaa" opacity="0.08"/><circle cx="264.7" cy="371.6" r="2.4" fill="#aaaaaa" opacity="0.08"/><circle cx="343.5" cy="354.8" r="2.9" fill="#aaaaaa" opacity="0.08"/><circle cx="226.2" cy="280.1" r="2.4" fill="#aaaaaa" opacity="0.08"/><circle cx="108.5" cy="109.2" r="3.7" fill="#aaaaaa" opacity="0.08"/><circle cx="131.8" cy="274.7" r="2.1" fill="#aaaaaa" opacity="0.08"/><circle cx="188.9" cy="325.5" r="2.5" fill="#aaaaaa" opacity="0.08"/><circle cx="250" cy="250" r="190" fill="none" stroke="#888888" stroke-width="4" opacity="0.4"/><circle cx="250" cy="250" r="180" fill="none" stroke="#888888" stroke-width="2.5"/><line x1="430.0" y1="248.0" x2="445.0" y2="247.9" stroke="#aaaaaa" stroke-width="4" stroke-linecap="round"/><line x1="373.4" y1="381.1" x2="383.7" y2="392.0" stroke="#aaaaaa" stroke-width="4" stroke-linecap="round"/><line x1="254.3" y1="429.9" x2="254.6" y2="444.9" stroke="#aaaaaa" stroke-width="4" stroke-linecap="round"/><line x1="118.0" y1="372.4" x2="107.0" y2="382.6" stroke="#aaaaaa" stroke-width="4" stroke-linecap="round"/><line x1="70.1" y1="244.1" x2="55.1" y2="243.6" stroke="#aaaaaa" stroke-width="4" stroke-linecap="round"/><line x1="126.9" y1="118.7" x2="116.6" y2="107.8" stroke="#aaaaaa" stroke-width="4" stroke-linecap="round"/><line x1="243.8" y1="70.1" x2="243.3" y2="55.1" stroke="#aaaaaa" stroke-width="4" stroke-linecap="round"/><line x1="379.2" y1="124.6" x2="389.9" y2="114.2" stroke="#aaaaaa" stroke-width="4" stroke-linecap="round"/><circle cx="250" cy="250" r="160" fill="#1a1a2e" stroke="#888888" stroke-width="2"/><circle cx="250" cy="250" r="120" fill="none" stroke="#666666" stroke-width="1" opacity="0.5"/><circle cx="250" cy="250" r="80" fill="none" stroke="#666666" stroke-width="1" opacity="0.3"/><line x1="172.3" y1="231.1" x2="133.4" y2="221.6" stroke="#aaaaaa" stroke-width="1.5" opacity="0.3"/><line x1="268.9" y1="172.3" x2="278.4" y2="133.4" stroke="#aaaaaa" stroke-width="1.5" opacity="0.3"/><line x1="327.7" y1="268.9" x2="366.6" y2="278.4" stroke="#aaaaaa" stroke-width="1.5" opacity="0.3"/><line x1="231.1" y1="327.7" x2="221.6" y2="366.6" stroke="#aaaaaa" stroke-width="1.5" opacity="0.3"/><circle cx="250" cy="250" r="50" fill="#1a1a2e" stroke="#aaaaaa" stroke-width="2"/><text x="250" y="242" text-anchor="middle" dominant-baseline="central" fill="#aaaaaa" font-family="'Courier New', monospace" font-weight="bold" font-size="20">#2</text><text x="250" y="268" text-anchor="middle" dominant-baseline="central" fill="#888888" font-family="'Courier New', monospace" font-size="12" opacity="0.7">COMMON</text><text x="250" y="460" text-anchor="middle" fill="#aaaaaa" font-family="'Courier New', monospace" font-size="14" opacity="0.4">CHIPTAP</text></svg>