<svg xmlns="http://www.w3.org/2000/svg" viewBox="0 0 500 500" width="500" height="500"><rect width="500" height="500" fill="#0a2e0a" rx="20"/><line x1="80" y1="80" x2="80" y2="420" stroke="#00FF00" stroke-width="0.5" opacity="0.06"/><line x1="80" y1="80" x2="420" y2="80" stroke="#00FF00" stroke-width="0.5" opacity="0.06"/><line x1="120" y1="80" x2="120" y2="420" stroke="#00FF00" stroke-width="0.5" opacity="0.06"/><line x1="80" y1="120" x2="420" y2="120" stroke="#00FF00" stroke-width="0.5" opacity="0.06"/><line x1="160" y1="80" x2="160" y2="420" stroke="#00FF00" stroke-width="0.5" opacity="0.06"/><line x1="80" y1="160" x2="420" y2="160" stroke="#00FF00" stroke-width="0.5" opacity="0.06"/><line x1="200" y1="80" x2="200" y2="420" stroke="#00FF00" stroke-width="0.5" opacity="0.06"/><line x1="80" y1="200" x2="420" y2="200" stroke="#00FF00" stroke-width="0.5" opacity="0.06"/><line x1="240" y1="80" x2="240" y2="420" stroke="#00FF00" stroke-width="0.5" opacity="0.06"/><line x1="80" y1="240" x2="420" y2="240" stroke="#00FF00" stroke-width="0.5" opacity="0.06"/><line x1="280" y1="80" x2="280" y2="420" stroke="#00FF00" stroke-width="0.5" opacity="0.06"/><line x1="80" y1="280" x2="420" y2="280" stroke="#00FF00" stroke-width="0.5" opacity="0.06"/><line x1="320" y1="80" x2="320" y2="420" stroke="#00FF00" stroke-width="0.5" opacity="0.06"/><line x1="80" y1="320" x2="420" y2="320" stroke="#00FF00" stroke-width="0.5" opacity="0.06"/><line x1="360" y1="80" x2="360" y2="420" stroke="#00FF00" stroke-width="0.5" opacity="0.06"/><line x1="80" y1="360" x2="420" y2="360" stroke="#00FF00" stroke-width="0.5" opacity="0.06"/><line x1="400" y1="80" x2="400" y2="420" stroke="#00FF00" stroke-width="0.5" opacity="0.06"/><line x1="80" y1="400" x2="420" y2="400" stroke="#00FF00" stroke-width="0.5" opacity="0.06"/><circle cx="250" cy="250" r="190" fill="none" stroke="#00CC00" stroke-width="4" opacity="0.4"/><circle cx="250" cy="250" r="180" fill="none" stroke="#00CC00" stroke-width="2.5"/><line x1="429.9" y1="255.7" x2="444.9" y2="256.2" stroke="#00FF00" stroke-width="4" stroke-linecap="round"/><line x1="395.9" y1="355.4" x2="408.0" y2="364.2" stroke="#00FF00" stroke-width="4" stroke-linecap="round"/><line x1="305.3" y1="421.3" x2="309.9" y2="435.6" stroke="#00FF00" stroke-width="4" stroke-linecap="round"/><line x1="188.7" y1="419.3" x2="183.6" y2="433.4" stroke="#00FF00" stroke-width="4" stroke-linecap="round"/><line x1="101.2" y1="351.3" x2="88.8" y2="359.7" stroke="#00FF00" stroke-width="4" stroke-linecap="round"/><line x1="70.1" y1="256.1" x2="55.1" y2="256.6" stroke="#00FF00" stroke-width="4" stroke-linecap="round"/><line x1="103.6" y1="145.3" x2="91.4" y2="136.6" stroke="#00FF00" stroke-width="4" stroke-linecap="round"/><line x1="201.7" y1="76.6" x2="197.6" y2="62.2" stroke="#00FF00" stroke-width="4" stroke-linecap="round"/><line x1="302.3" y1="77.8" x2="306.7" y2="63.4" stroke="#00FF00" stroke-width="4" stroke-linecap="round"/><line x1="395.0" y1="143.4" x2="407.1" y2="134.5" stroke="#00FF00" stroke-width="4" stroke-linecap="round"/><circle cx="250" cy="250" r="160" fill="#0a2e0a" stroke="#00CC00" stroke-width="2"/><circle cx="250" cy="250" r="120" fill="none" stroke="#008800" stroke-width="1" opacity="0.5"/><circle cx="250" cy="250" r="80" fill="none" stroke="#008800" stroke-width="1" opacity="0.3"/><line x1="170.8" y1="261.1" x2="131.2" y2="266.6" stroke="#00FF00" stroke-width="1.5" opacity="0.3"/><line x1="238.9" y1="170.8" x2="233.4" y2="131.2" stroke="#00FF00" stroke-width="1.5" opacity="0.3"/><line x1="329.2" y1="238.9" x2="368.8" y2="233.4" stroke="#00FF00" stroke-width="1.5" opacity="0.3"/><line x1="261.1" y1="329.2" x2="266.6" y2="368.8" stroke="#00FF00" stroke-width="1.5" opacity="0.3"/><circle cx="250" cy="250" r="50" fill="#0a2e0a" stroke="#00FF00" stroke-width="2"/><text x="250" y="242" text-anchor="middle" dominant-baseline="central" fill="#00FF00" font-family="'Courier New', monospace" font-weight="bold" font-size="20">#102</text><text x="250" y="268" text-anchor="middle" dominant-baseline="central" fill="#00CC00" font-family="'Courier New', monospace" font-size="12" opacity="0.7">UNCOMMON</text><text x="250" y="460" text-anchor="middle" fill="#00FF00" font-family="'Courier New', monospace" font-size="14" opacity="0.4">CHIPTAP</text></svg>